<svg xmlns="http://www.w3.org/2000/svg" width="290" height="77" viewBox="0 0 290 77">
  <g id="Group_925" data-name="Group 925" transform="translate(-37 -12.001)">
    <g id="Group_2" data-name="Group 2" transform="translate(37 12)">
      <path id="Exclusion_1" data-name="Exclusion 1" d="M7565-422h-67a5.006,5.006,0,0,1-5-5v-67a5.005,5.005,0,0,1,5-5h67a5.005,5.005,0,0,1,5,5v67A5.006,5.006,0,0,1,7565-422Zm-47.423-57.1v39.41h21.018l0-.017a10.347,10.347,0,0,0,5.553-1.86,11.179,11.179,0,0,0,2.9-2.972,11.19,11.19,0,0,0,1.727-5.129,10.945,10.945,0,0,0-1.3-5.912,10.354,10.354,0,0,0-5.62-4.873,6.627,6.627,0,0,0,2.73-1.436,7.71,7.71,0,0,0,1.94-2.545,11.214,11.214,0,0,0,1.014-4.431,9.751,9.751,0,0,0-2.865-7.369,11.438,11.438,0,0,0-7.748-2.865h-9.873v5.673h6.06a5.463,5.463,0,0,1,3.9,1.649,5.106,5.106,0,0,1,1.465,3.734c0,.031,0,.062,0,.094v.047c0,.025,0,.05,0,.075s0,.042,0,.062v.006a5.251,5.251,0,0,1-5.289,4.86h-6.123v5.9h6.875a6.478,6.478,0,0,1,2.795.585,4.607,4.607,0,0,1,2.794,4.193,5.073,5.073,0,0,1-1.512,3.866,6.365,6.365,0,0,1-4.541,1.8h-7.681V-479.1Z" transform="translate(-7493 499)" fill="#fff"/>
    </g>
    <text id="BidLead" transform="translate(136 66)" fill="#fff" font-size="45" font-family="Montserrat-SemiBold, Montserrat" font-weight="600"><tspan x="0" y="0">BidLead</tspan></text>
  </g>
</svg>
