<svg width="500" height="500" viewBox="0 0 500 500" fill="none" xmlns="http://www.w3.org/2000/svg">
<path d="M265 78.55C249 67.89 224.76 67.3 208 73.36C178 84.2 182 108.36 156 125.36C130 142.36 105 136.36 80 158.42C55 180.48 52.74 222.23 63 241.76C73.26 261.29 85 275.62 75 309.23C65 342.84 66 381.88 106 402.43C146 422.98 177 379.17 203 388.18C229 397.19 278 437.08 332 425.18C386 413.28 362 372.34 397 360.69C432 349.04 452 308.82 440 266.35C428 223.88 398 215.71 405 189C410.28 168.83 417.36 149.42 403.9 130C386.53 104.94 356.8 94.19 328 96.73C317.27 97.73 305 98.0599 293.79 95.4599C281.05 92.4799 275.16 85.33 265 78.55Z" fill="#2B32B2"/>
<path opacity="0.7" d="M265 78.55C249 67.89 224.76 67.3 208 73.36C178 84.2 182 108.36 156 125.36C130 142.36 105 136.36 80 158.42C55 180.48 52.74 222.23 63 241.76C73.26 261.29 85 275.62 75 309.23C65 342.84 66 381.88 106 402.43C146 422.98 177 379.17 203 388.18C229 397.19 278 437.08 332 425.18C386 413.28 362 372.34 397 360.69C432 349.04 452 308.82 440 266.35C428 223.88 398 215.71 405 189C410.28 168.83 417.36 149.42 403.9 130C386.53 104.94 356.8 94.19 328 96.73C317.27 97.73 305 98.0599 293.79 95.4599C281.05 92.4799 275.16 85.33 265 78.55Z" fill="white"/>
<path d="M419.69 227.42L251.52 267.25L251.36 267.14L404.61 190.74C404.73 190.16 404.84 189.58 405 188.98C407.45 179.61 410.29 170.4 411.28 161.28L251.45 266.37H251.27L392.74 117.25C386.502 111.604 379.39 107.008 371.68 103.64L251.09 265.57H250.9L324.19 97.0001C316.424 97.6497 308.614 97.5358 300.87 96.6601L250.48 264.94L250.3 265.03L261.83 76.6201C254.559 72.7688 246.574 70.4542 238.37 69.8201L249.68 264.56L249.55 264.7L194.92 80.2701C187.2 86.0401 182.85 93.2701 178.2 100.73L248.81 264.48L248.73 264.65L148.73 129.54C142.017 132.84 134.979 135.434 127.73 137.28L248 264.69V264.89L83.1401 155.8C82.1401 156.63 81.0501 157.49 80.0001 158.41C74.7965 163.056 70.4267 168.559 67.0801 174.68L247.23 265.19L247.29 265.37L57.4701 219.8C58.0601 228.33 60.0001 236 63.0001 241.75C63.5001 242.75 64.0001 243.65 64.5101 244.58L246.72 265.9L246.83 266.06L78.8301 285.2C78.7995 292.649 77.712 300.056 75.6001 307.2L246.52 266.72L246.68 266.83L70.5701 354.64C71.7284 362.892 74.5121 370.832 78.7601 378L246.55 267.63H246.73L115.33 406.14C125.82 409.14 135.67 408.14 144.96 405.33L246.91 268.43H247.1L195.56 386.93C198.092 386.929 200.606 387.348 203 388.17C205.677 389.122 208.304 390.21 210.87 391.43L247.52 269.06L247.7 268.97L239.31 406.11C244.82 408.92 250.65 411.75 256.74 414.39L248.32 269.44L248.45 269.3L294.87 426C302.244 427.185 309.723 427.577 317.18 427.17L249.18 269.5L249.26 269.33L356.7 414.53C363.47 409.27 367.26 402.99 370.07 396.53L250 269.31V269.11L391.66 362.87C393.368 362.009 395.136 361.274 396.95 360.67C403.412 358.528 409.489 355.364 414.95 351.3L250.77 268.81L250.71 268.63L440.23 314.12C442.448 306.476 443.543 298.549 443.48 290.59L251.28 268.1L251.17 267.94L432.52 247.28C428.839 240.293 424.546 233.647 419.69 227.42ZM246.61 266.72L247.19 266.58L246.76 266.8L246.61 266.72ZM246.83 267.58H246.65L247.16 267.24L246.83 267.58ZM247.15 268.28H246.99L247.35 267.8L247.15 268.28ZM247 266L246.89 265.88L247.49 265.95L247 266ZM247.74 268.8L247.6 268.89L247.77 268.31L247.74 268.8ZM247.45 265.36L247.39 265.21L247.93 265.48L247.45 265.36ZM249.73 264.65V265.25L249.59 264.79L249.73 264.65ZM248.9 264.55L249.14 265.11L248.85 264.72L248.9 264.55ZM248.09 264.75L248.5 265.19L248.1 264.92L248.09 264.75ZM248.35 269.27V268.67L248.49 269.13L248.35 269.27ZM249.18 269.37L248.94 268.81L249.23 269.2L249.18 269.37ZM249.09 267.8H248.8L248.54 267.67L248.34 267.46L248.23 267.19V266.9L248.31 266.62L248.49 266.39L248.73 266.23L249.01 266.16H249.3L249.56 266.29L249.76 266.5L249.87 266.77V267.06L249.79 267.34L249.61 267.57L249.37 267.73L249.09 267.8ZM249.58 268.73L249.98 269V269.17L249.58 268.73ZM251.21 266.38H251.39L250.88 266.72L251.21 266.38ZM250.89 265.68H251.05L250.69 266.16L250.89 265.68ZM250.34 265.12L250.48 265.03L250.31 265.6L250.34 265.12ZM250.15 268.44L250.63 268.56L250.69 268.71L250.15 268.44ZM250.59 267.97L251 268L251.11 268.12L250.59 267.97ZM250.85 267.38L251.28 267.16L251.43 267.24L250.85 267.38Z" fill="white"/>
<path d="M247 433.12C333.433 433.12 403.5 429.511 403.5 425.06C403.5 420.609 333.433 417 247 417C160.567 417 90.5 420.609 90.5 425.06C90.5 429.511 160.567 433.12 247 433.12Z" fill="#263238"/>
<path d="M154.84 282.15H348.15C349.288 282.15 350.379 282.602 351.184 283.406C351.988 284.211 352.44 285.302 352.44 286.44V410.54H150.54V286.44C150.54 285.876 150.651 285.317 150.868 284.796C151.084 284.275 151.401 283.801 151.8 283.403C152.2 283.004 152.674 282.689 153.195 282.474C153.717 282.259 154.276 282.149 154.84 282.15Z" fill="#2B32B2" stroke="#263238" stroke-linecap="round" stroke-linejoin="round"/>
<path d="M165.21 291.89H337.78C338.343 291.89 338.901 292.001 339.422 292.216C339.942 292.432 340.415 292.748 340.814 293.146C341.212 293.545 341.528 294.018 341.743 294.538C341.959 295.059 342.07 295.617 342.07 296.18V412.27H160.91V296.19C160.909 295.625 161.019 295.065 161.235 294.543C161.45 294.021 161.767 293.546 162.167 293.146C162.566 292.747 163.041 292.43 163.563 292.215C164.085 291.999 164.645 291.889 165.21 291.89Z" fill="#263238" stroke="#263238" stroke-linecap="round" stroke-linejoin="round"/>
<path d="M350.71 420.91H143.29C133.74 420.91 126 415.13 126 408H368C368 415.13 360.26 420.91 350.71 420.91Z" fill="#2B32B2" stroke="#263238" stroke-linecap="round" stroke-linejoin="round"/>
<path d="M250.63 163.93C237.31 176.6 203.24 189.4 163.51 216.55C163.51 216.55 165.99 308.29 250.63 358.44V163.93Z" fill="#2B32B2" stroke="#263238" stroke-linecap="round" stroke-linejoin="round"/>
<path d="M250.63 163.93C263.94 176.6 298.02 189.4 337.75 216.55C337.75 216.55 335.27 308.29 250.63 358.44V163.93Z" fill="#263238" stroke="#263238" stroke-linecap="round" stroke-linejoin="round"/>
<path d="M250.63 171.74C234.56 183.13 206.71 193.99 169.9 219.14C169.9 219.14 172.2 304.14 250.63 350.63C329.06 304.16 331.36 219.14 331.36 219.14C294.54 194 266.82 183.13 250.63 171.74Z" fill="#263238" stroke="#263238" stroke-linecap="round" stroke-linejoin="round"/>
<path d="M317.6 210.11C261.44 227.11 218.6 276.46 199.12 302.49C212.52 322.147 230.112 338.589 250.63 350.63C329.06 304.16 331.36 219.14 331.36 219.14C326.62 215.913 322.033 212.903 317.6 210.11Z" fill="#2B32B2" stroke="#263238" stroke-linecap="round" stroke-linejoin="round"/>
<path d="M281.21 257.45H221C219.674 257.45 218.402 256.923 217.464 255.985C216.527 255.048 216 253.776 216 252.45V224.11C216.155 214.907 219.92 206.134 226.483 199.681C233.046 193.228 241.881 189.612 251.085 189.612C260.289 189.612 269.124 193.228 275.687 199.681C282.25 206.134 286.015 214.907 286.17 224.11V252.45C286.17 253.769 285.649 255.035 284.72 255.971C283.791 256.908 282.529 257.439 281.21 257.45ZM226.04 247.45H276.21V224.11C276.079 217.544 273.378 211.291 268.688 206.693C263.998 202.096 257.693 199.521 251.125 199.521C244.557 199.521 238.252 202.096 233.562 206.693C228.872 211.291 226.171 217.544 226.04 224.11V247.45Z" fill="white" stroke="#263238" stroke-linecap="round" stroke-linejoin="round"/>
<path d="M288.93 243.79H212.33V308.52H288.93V243.79Z" fill="white" stroke="#263238" stroke-linecap="round" stroke-linejoin="round"/>
<path d="M258.59 270.67C258.59 269.196 258.199 267.748 257.458 266.474C256.716 265.2 255.65 264.145 254.368 263.418C253.086 262.69 251.634 262.315 250.16 262.331C248.686 262.347 247.242 262.753 245.976 263.508C244.71 264.264 243.667 265.341 242.953 266.631C242.239 267.921 241.88 269.377 241.912 270.85C241.944 272.324 242.366 273.763 243.135 275.021C243.904 276.279 244.993 277.31 246.29 278.01L244.89 292.71H255.61L254.21 278.01C255.536 277.297 256.643 276.238 257.415 274.945C258.186 273.653 258.592 272.175 258.59 270.67Z" fill="#263238" stroke="#263238" stroke-linecap="round" stroke-linejoin="round"/>
<path d="M401.55 258.09L401.43 256.59" stroke="#263238" stroke-linecap="round" stroke-linejoin="round"/>
<path d="M401.14 253.6C397.18 216.118 379.699 181.363 351.967 155.838C324.235 130.313 288.152 115.768 250.471 114.923C212.79 114.079 176.092 126.993 147.244 151.25C118.396 175.506 99.3752 209.443 93.74 246.71C93.3133 249.55 92.98 252.4 92.74 255.26" stroke="#263238" stroke-linecap="round" stroke-linejoin="round" stroke-dasharray="3.01 3.01"/>
<path d="M92.5599 256.74L92.4399 258.23" stroke="#263238" stroke-linecap="round" stroke-linejoin="round"/>
<path d="M126.99 232.03L135.85 195.98H108.97L126.99 232.03Z" fill="#263238" stroke="#263238" stroke-linecap="round" stroke-linejoin="round"/>
<path d="M126.99 232.03L128.96 197.35H111.85L126.99 232.03Z" fill="#2B32B2" stroke="#263238" stroke-linecap="round" stroke-linejoin="round"/>
<path d="M126.99 232.03L125.16 194.65H108.05L126.99 232.03Z" fill="#2B32B2" stroke="#263238" stroke-linecap="round" stroke-linejoin="round"/>
<path d="M95.05 192.92L90.64 187.93H67.42L78.31 232.03H126.99L119.27 192.92H95.05Z" fill="#263238" stroke="#263238" stroke-linecap="round" stroke-linejoin="round"/>
<path d="M178.66 124.67H120.67C118.643 124.67 117 126.313 117 128.34V159.67C117 161.697 118.643 163.34 120.67 163.34H178.66C180.687 163.34 182.33 161.697 182.33 159.67V128.34C182.33 126.313 180.687 124.67 178.66 124.67Z" fill="#263238" stroke="#263238" stroke-linecap="round" stroke-linejoin="round"/>
<path d="M182.33 132H117V146H182.33V132Z" fill="#2B32B2" stroke="#263238" stroke-linecap="round" stroke-linejoin="round"/>
<path d="M168.54 157.16C168.54 156.62 168.38 156.092 168.08 155.643C167.78 155.194 167.354 154.844 166.855 154.638C166.356 154.431 165.807 154.377 165.277 154.482C164.748 154.588 164.261 154.848 163.88 155.23C163.498 155.611 163.238 156.098 163.132 156.627C163.027 157.157 163.081 157.706 163.288 158.205C163.494 158.704 163.844 159.13 164.293 159.43C164.742 159.73 165.27 159.89 165.81 159.89C166.534 159.89 167.228 159.602 167.74 159.09C168.252 158.578 168.54 157.884 168.54 157.16Z" fill="white" stroke="#263238" stroke-linecap="round" stroke-linejoin="round"/>
<path d="M176.13 157.16C176.13 156.62 175.97 156.092 175.67 155.643C175.37 155.194 174.944 154.844 174.445 154.638C173.946 154.431 173.397 154.377 172.867 154.482C172.338 154.588 171.851 154.848 171.47 155.23C171.088 155.611 170.828 156.098 170.723 156.627C170.617 157.157 170.671 157.706 170.878 158.205C171.084 158.704 171.434 159.13 171.883 159.43C172.332 159.73 172.86 159.89 173.4 159.89C174.124 159.89 174.818 159.602 175.33 159.09C175.842 158.578 176.13 157.884 176.13 157.16Z" fill="white" stroke="#263238" stroke-linecap="round" stroke-linejoin="round"/>
<path d="M287.07 98.76H217.11V144.12H287.07V98.76Z" fill="#2B32B2" stroke="#263238" stroke-linecap="round" stroke-linejoin="round"/>
<path d="M283.9 101.64H220.52V140.87H283.9V101.64Z" fill="#263238" stroke="#263238" stroke-linecap="round" stroke-linejoin="round"/>
<path d="M239.06 129C239.06 124.72 235.58 117.36 231.3 117.36C227.02 117.36 223.53 124.72 223.53 129C223.53 133.28 227.01 134.34 231.3 134.34C235.59 134.34 239.06 133.25 239.06 129Z" fill="white" stroke="#263238" stroke-linecap="round" stroke-linejoin="round"/>
<path d="M231.3 118.78C234.249 118.78 236.64 116.389 236.64 113.44C236.64 110.491 234.249 108.1 231.3 108.1C228.351 108.1 225.96 110.491 225.96 113.44C225.96 116.389 228.351 118.78 231.3 118.78Z" fill="white" stroke="#263238" stroke-linecap="round" stroke-linejoin="round"/>
<path d="M246.82 109.11H259.75" stroke="white" stroke-width="2" stroke-linecap="round" stroke-linejoin="round"/>
<path d="M246.82 114.71H259.75" stroke="white" stroke-width="2" stroke-linecap="round" stroke-linejoin="round"/>
<path d="M246.82 124.63H276.99" stroke="white" stroke-width="2" stroke-linecap="round" stroke-linejoin="round"/>
<path d="M246.82 131.96H276.99" stroke="white" stroke-width="2" stroke-linecap="round" stroke-linejoin="round"/>
<path d="M382.81 124.67H330.78C327.56 124.67 324.95 127.28 324.95 130.5V157.58C324.95 160.8 327.56 163.41 330.78 163.41H382.81C386.03 163.41 388.64 160.8 388.64 157.58V130.5C388.64 127.28 386.03 124.67 382.81 124.67Z" fill="#263238" stroke="#263238" stroke-width="2" stroke-linecap="round" stroke-linejoin="round"/>
<path d="M359.34 143.07L388.64 128.25V127.57C388.64 126.801 388.334 126.063 387.791 125.519C387.247 124.975 386.509 124.67 385.74 124.67H327.86C327.09 124.67 326.351 124.975 325.806 125.519C325.26 126.062 324.953 126.8 324.95 127.57V128.38L353.72 143.14C354.597 143.568 355.562 143.784 356.538 143.772C357.514 143.76 358.474 143.52 359.34 143.07Z" fill="#2B32B2" stroke="#263238" stroke-width="2" stroke-linecap="round" stroke-linejoin="round"/>
<path d="M420.75 192.21H364.48C362.243 192.21 360.43 194.023 360.43 196.26V220.65C360.43 222.887 362.243 224.7 364.48 224.7H420.75C422.987 224.7 424.8 222.887 424.8 220.65V196.26C424.8 194.023 422.987 192.21 420.75 192.21Z" fill="#263238"/>
<path d="M360.44 216.2V233.65L370.17 222.45" fill="#263238"/>
<path d="M382.88 209.05C382.882 208.389 382.687 207.741 382.321 207.191C381.955 206.64 381.433 206.21 380.823 205.956C380.212 205.702 379.54 205.635 378.891 205.764C378.242 205.892 377.646 206.211 377.178 206.678C376.711 207.146 376.392 207.742 376.264 208.391C376.135 209.04 376.202 209.712 376.456 210.323C376.71 210.933 377.14 211.455 377.691 211.821C378.241 212.187 378.888 212.382 379.55 212.38C380.432 212.377 381.278 212.026 381.902 211.402C382.526 210.778 382.877 209.932 382.88 209.05Z" fill="#2B32B2"/>
<path d="M397.17 209.05C397.172 208.389 396.977 207.741 396.611 207.191C396.245 206.64 395.723 206.21 395.113 205.956C394.502 205.702 393.83 205.635 393.181 205.764C392.532 205.892 391.936 206.211 391.468 206.678C391.001 207.146 390.682 207.742 390.554 208.391C390.425 209.04 390.492 209.712 390.746 210.323C391 210.933 391.43 211.455 391.981 211.821C392.531 212.187 393.179 212.382 393.84 212.38C394.722 212.377 395.568 212.026 396.192 211.402C396.816 210.778 397.167 209.932 397.17 209.05Z" fill="#2B32B2"/>
<path d="M411.47 209.05C411.472 208.389 411.278 207.742 410.912 207.192C410.546 206.641 410.025 206.211 409.415 205.957C408.805 205.703 408.133 205.635 407.485 205.763C406.836 205.891 406.24 206.208 405.772 206.675C405.304 207.141 404.985 207.736 404.855 208.385C404.725 209.033 404.791 209.705 405.043 210.316C405.296 210.927 405.724 211.449 406.273 211.816C406.823 212.184 407.469 212.38 408.13 212.38C409.013 212.377 409.86 212.026 410.485 211.402C411.111 210.779 411.465 209.933 411.47 209.05Z" fill="#2B32B2"/>
<path d="M126.65 273.27C126.494 273.065 126.292 272.9 126.062 272.785C125.831 272.671 125.577 272.611 125.32 272.61H82.12L80.46 267.61C80.3472 267.278 80.1332 266.989 79.8481 266.785C79.5629 266.58 79.2209 266.47 78.87 266.47H67.93C67.5081 266.503 67.1141 266.693 66.8266 267.004C66.5392 267.314 66.3795 267.722 66.3795 268.145C66.3795 268.568 66.5392 268.976 66.8266 269.286C67.1141 269.597 67.5081 269.787 67.93 269.82H77.66L88.21 301.47C88.3215 301.803 88.5351 302.093 88.8206 302.297C89.106 302.502 89.4488 302.611 89.8 302.61H90.41C89.8092 303.536 89.4896 304.616 89.49 305.72C89.4847 306.621 89.6899 307.51 90.0893 308.317C90.4886 309.124 91.0711 309.827 91.7902 310.369C92.5093 310.911 93.3452 311.278 94.2311 311.44C95.1171 311.602 96.0285 311.554 96.8929 311.301C97.7573 311.049 98.5506 310.597 99.2096 309.983C99.8686 309.369 100.375 308.61 100.688 307.766C101.002 306.922 101.114 306.016 101.015 305.121C100.916 304.225 100.61 303.366 100.12 302.61H108.12C107.519 303.536 107.2 304.616 107.2 305.72C107.168 306.499 107.293 307.276 107.569 308.005C107.844 308.734 108.264 309.399 108.804 309.962C109.343 310.524 109.991 310.971 110.708 311.277C111.424 311.583 112.196 311.74 112.975 311.74C113.754 311.74 114.526 311.583 115.242 311.277C115.959 310.971 116.607 310.524 117.146 309.962C117.686 309.399 118.106 308.734 118.381 308.005C118.657 307.276 118.782 306.499 118.75 305.72C118.75 304.616 118.431 303.536 117.83 302.61H119.12C119.351 302.628 119.583 302.598 119.802 302.522C120.02 302.446 120.221 302.325 120.391 302.168C120.561 302.011 120.696 301.82 120.789 301.608C120.882 301.396 120.93 301.167 120.93 300.935C120.93 300.703 120.882 300.474 120.789 300.262C120.696 300.05 120.561 299.859 120.391 299.702C120.221 299.545 120.02 299.424 119.802 299.348C119.583 299.272 119.351 299.242 119.12 299.26H91L89.15 293.73H120.53C120.899 293.73 121.257 293.608 121.55 293.384C121.843 293.16 122.053 292.846 122.15 292.49L126.93 274.73C127 274.482 127.011 274.22 126.963 273.967C126.914 273.713 126.807 273.475 126.65 273.27ZM95.26 308.14C94.7814 308.14 94.3135 307.998 93.9155 307.732C93.5176 307.466 93.2074 307.088 93.0242 306.646C92.841 306.204 92.7931 305.717 92.8865 305.248C92.9799 304.778 93.2104 304.347 93.5488 304.009C93.8872 303.67 94.3184 303.44 94.7879 303.346C95.2573 303.253 95.7439 303.301 96.1861 303.484C96.6283 303.667 97.0062 303.978 97.2722 304.375C97.5381 304.773 97.68 305.241 97.68 305.72C97.6774 306.361 97.4216 306.975 96.9683 307.428C96.515 307.882 95.901 308.137 95.26 308.14ZM113.03 308.14C112.551 308.14 112.083 307.998 111.686 307.732C111.288 307.466 110.977 307.088 110.794 306.646C110.611 306.204 110.563 305.717 110.657 305.248C110.75 304.778 110.98 304.347 111.319 304.009C111.657 303.67 112.088 303.44 112.558 303.346C113.027 303.253 113.514 303.301 113.956 303.484C114.398 303.667 114.776 303.978 115.042 304.375C115.308 304.773 115.45 305.241 115.45 305.72C115.449 306.04 115.384 306.356 115.26 306.651C115.136 306.946 114.955 307.214 114.728 307.439C114.5 307.664 114.23 307.841 113.934 307.962C113.637 308.082 113.32 308.143 113 308.14H113.03ZM117.5 290.38H111.29V276H117.5V290.38ZM101.72 276H107.93V290.41H101.72V276ZM98.37 290.41H92.16V276H98.37V290.41ZM83.24 276H88.8V290.41H88.05L83.24 276ZM120.85 284.48V276H123.13L120.85 284.48Z" fill="#263238"/>
<path d="M399.15 265.17C394.369 265.168 389.694 266.584 385.718 269.239C381.742 271.894 378.642 275.669 376.812 280.086C374.981 284.503 374.502 289.363 375.434 294.053C376.366 298.742 378.668 303.05 382.049 306.431C385.43 309.812 389.738 312.114 394.427 313.046C399.117 313.978 403.977 313.499 408.394 311.668C412.811 309.838 416.586 306.738 419.241 302.762C421.896 298.786 423.312 294.111 423.31 289.33C423.302 282.925 420.754 276.784 416.225 272.255C411.696 267.726 405.555 265.178 399.15 265.17ZM399.15 268.17C401.15 268.17 403.33 270.79 404.87 275.17H393.43C395 270.79 397.12 268.17 399.15 268.17ZM405.74 278.17C406.475 281.33 406.88 284.557 406.95 287.8H391.34C391.41 284.557 391.815 281.33 392.55 278.17H405.74ZM407 290.83C406.918 294.608 406.36 298.361 405.34 302H393C392 298.372 391.459 294.633 391.39 290.87L407 290.83ZM388.38 287.83H378.05C378.293 284.414 379.364 281.109 381.17 278.2H389.45C388.771 281.367 388.396 284.592 388.33 287.83H388.38ZM388.38 290.83C388.43 294.596 388.91 298.343 389.81 302H382.2C379.774 298.767 378.333 294.902 378.05 290.87L388.38 290.83ZM390.75 305C391.338 306.639 392.124 308.201 393.09 309.65C390.052 308.732 387.26 307.143 384.92 305H390.75ZM394 305H404.29C402.82 308.5 400.93 310.54 399.15 310.54C397.37 310.54 395.48 308.46 394 305ZM407.54 305H413.37C411.03 307.143 408.238 308.732 405.2 309.65C406.166 308.201 406.952 306.639 407.54 305ZM408.48 302C409.415 298.348 409.925 294.599 410 290.83H420.28C419.993 294.88 418.537 298.76 416.09 302H408.48ZM410 287.83C409.934 284.592 409.559 281.367 408.88 278.2H417.16C418.966 281.109 420.037 284.414 420.28 287.83H410ZM414.9 275.2H408.09C407.445 273.025 406.485 270.956 405.24 269.06C408.947 270.19 412.274 272.314 414.86 275.2H414.9ZM393.13 269.06C391.885 270.955 390.928 273.024 390.29 275.2H383.47C386.056 272.314 389.383 270.19 393.09 269.06H393.13Z" fill="#263238"/>
</svg>
