<svg width="500" height="500" viewBox="0 0 500 500" fill="none" xmlns="http://www.w3.org/2000/svg">
<path d="M82.73 244.49C-9.64999 297.82 -9.63999 384.3 82.73 437.63C175.1 490.96 324.88 490.96 417.26 437.63C509.64 384.3 509.63 297.82 417.26 244.49C324.89 191.16 175.11 191.16 82.73 244.49Z" fill="#F5F5F5"/>
<path d="M122.1 418.46L128.16 414.96L92.71 411.67L98.42 432.13L104.48 428.64L178.92 471.34C193.756 474.014 208.735 475.83 223.78 476.78L122.1 418.46Z" fill="#EBEBEB"/>
<path d="M224.78 270.12L459.38 404.69C463.38 400.295 467.056 395.616 470.38 390.69L242.4 260L248.46 256.5L213 253.16L218.71 273.62L224.78 270.12Z" fill="#EBEBEB"/>
<path d="M84.34 343.81L48.9 340.51L54.6 361L60.66 357.5L269.37 477.16C279.7 476.68 289.98 475.81 300.15 474.54L78.28 347.31L84.34 343.81Z" fill="#EBEBEB"/>
<path d="M449 324.29L455 320.8L419.56 317.5L425.3 338L431.35 334.5L483.15 364.21C484.935 358.215 486.022 352.034 486.39 345.79L449 324.29Z" fill="#EBEBEB"/>
<path d="M443.83 419.37L372.44 378.42L378.49 374.92L343.05 371.63L348.76 392.09L354.81 388.6L428.34 430.77C433.7 427.245 438.871 423.439 443.83 419.37Z" fill="#EBEBEB"/>
<path d="M383.16 304.64C383.16 304.64 379.63 275.09 391.46 246.91C398.07 231.16 408.95 224.25 415.46 223.91C422.72 223.48 429.69 230.68 422.76 240.91C416.17 250.66 404.2 254.15 396 280.02C390.6 297.08 390.73 308.54 390.73 308.54L383.16 304.64Z" fill="#2B32B2"/>
<path opacity="0.5" d="M383.16 304.64C383.16 304.64 379.63 275.09 391.46 246.91C398.07 231.16 408.95 224.25 415.46 223.91C422.72 223.48 429.69 230.68 422.76 240.91C416.17 250.66 404.2 254.15 396 280.02C390.6 297.08 390.73 308.54 390.73 308.54L383.16 304.64Z" fill="white"/>
<path d="M388 297.45C388.06 297.449 388.118 297.435 388.172 297.411C388.227 297.386 388.275 297.351 388.316 297.307C388.356 297.263 388.387 297.212 388.406 297.155C388.426 297.099 388.434 297.039 388.43 296.98C386.9 264.75 403.68 238.71 416.08 230.5C416.13 230.469 416.173 230.427 416.207 230.379C416.241 230.33 416.265 230.275 416.277 230.218C416.289 230.16 416.289 230.1 416.278 230.042C416.266 229.984 416.243 229.929 416.21 229.88C416.178 229.83 416.135 229.786 416.086 229.752C416.037 229.718 415.981 229.695 415.922 229.683C415.864 229.67 415.803 229.67 415.744 229.682C415.686 229.693 415.63 229.717 415.58 229.75C403 238.07 386 264.44 387.54 297C387.54 297.06 387.552 297.119 387.575 297.175C387.598 297.23 387.632 297.28 387.675 297.322C387.718 297.364 387.769 297.397 387.825 297.419C387.88 297.441 387.94 297.451 388 297.45Z" fill="white"/>
<path d="M390.7 308.53C392.14 301.21 396.6 293.85 405.75 286.26C414.9 278.67 427.29 271.95 425.91 264.72C424.53 257.49 414.91 258.45 408.05 262.01C401.19 265.57 385.35 280.29 386.93 306.59L390.7 308.53Z" fill="#2B32B2"/>
<path opacity="0.65" d="M390.7 308.53C392.14 301.21 396.6 293.85 405.75 286.26C414.9 278.67 427.29 271.95 425.91 264.72C424.53 257.49 414.91 258.45 408.05 262.01C401.19 265.57 385.35 280.29 386.93 306.59L390.7 308.53Z" fill="white"/>
<path d="M389.3 300.19C389.406 300.184 389.506 300.142 389.584 300.071C389.663 300 389.714 299.905 389.73 299.8C391.8 284.28 410.81 265.73 419.27 263.2C419.385 263.163 419.48 263.083 419.536 262.976C419.592 262.87 419.605 262.745 419.57 262.63C419.535 262.516 419.457 262.421 419.352 262.364C419.247 262.308 419.124 262.296 419.01 262.33C410.14 264.99 391.01 283.55 388.83 299.68C388.816 299.799 388.848 299.919 388.921 300.014C388.994 300.11 389.101 300.173 389.22 300.19H389.3Z" fill="white"/>
<path d="M371.25 326.36C363.397 329.233 355.925 333.054 349 337.74C341.2 343.01 334.07 349.37 325.76 353.74C314.95 359.42 302.53 361.48 290.36 360.9C283.47 360.57 275.98 359.06 271.55 353.63C270.541 352.208 270.06 350.479 270.19 348.74C270.178 347.472 270.432 346.215 270.935 345.051C271.438 343.887 272.179 342.841 273.11 341.98C283.11 332.24 297.11 328.23 310.53 325.09C323.95 321.95 332.06 318 345.27 311C350.93 308 356.5 304.74 362.2 301.89L362.33 301.82C371.48 297.27 379.97 291.33 390.33 296.73C395.43 299.38 398.27 304.44 395.87 309.97C391.72 319.58 380.27 323.08 371.25 326.36Z" fill="#E0E0E0"/>
<path d="M157.54 302.62L100 335.84L175.11 379.29L175.38 379.12L177.47 377.92C178.15 377.51 178.8 377.13 179.47 376.76C189.47 370.96 196.54 366.69 195.99 363.44C195.6 360.97 191.13 359.57 187.44 359.13C185.442 358.966 183.499 358.394 181.73 357.45C181.066 357.149 180.498 356.672 180.085 356.071C179.673 355.47 179.432 354.768 179.39 354.04C179.39 352.51 180.51 350.92 182.68 349.66C186.68 347.35 192.68 347.11 196.19 349.11C197.503 349.84 198.519 351.008 199.06 352.41C199.687 353.874 200.73 355.122 202.06 355.998C203.389 356.875 204.947 357.341 206.54 357.34C212.46 357.67 219.08 353.85 229.98 347.52L232.58 346.02L157.54 302.62ZM300.23 385.08C297.87 386.43 295.59 387.71 293.35 388.93C286.94 392.49 281.81 395.35 279.56 397.74C279.165 398.071 278.851 398.488 278.643 398.96C278.435 399.432 278.338 399.945 278.36 400.46C278.76 402.92 283.23 404.33 286.92 404.77C288.917 404.925 290.861 405.49 292.63 406.43C293.187 406.741 293.687 407.143 294.11 407.62C294.66 408.238 294.969 409.033 294.98 409.86C294.98 411.38 293.84 412.98 291.66 414.22C287.66 416.54 281.66 416.77 278.17 414.78C276.856 414.053 275.837 412.889 275.29 411.49C274.51 409.35 272.09 406.77 267.8 406.54C262.8 406.25 257.65 409.38 249.8 414.13L246.63 416C245.39 416.74 244.11 417.51 242.74 418.31L331.22 469.31C333.13 468.9 335.02 468.49 336.91 468.06C360.049 462.943 382.507 455.122 403.82 444.76L300.23 385.08Z" fill="#E0E0E0"/>
<path d="M91.73 165.58L86.89 164.86C86.5789 164.788 86.2926 164.634 86.0606 164.414C85.8286 164.194 85.6593 163.917 85.57 163.61C85.3377 162.747 85.0367 161.905 84.67 161.09C84.5899 160.698 84.6112 160.292 84.732 159.91C84.8527 159.529 85.0689 159.185 85.36 158.91L87.82 156.21C88.45 155.52 88.67 154.64 88.31 154.21L84.57 150.16C84.2 149.76 83.32 149.85 82.57 150.36L79.39 152.62C79.0937 152.858 78.7439 153.019 78.3709 153.091C77.9979 153.162 77.6131 153.141 77.25 153.03C76.4039 152.557 75.521 152.152 74.61 151.82C74.3211 151.676 74.0761 151.457 73.9002 151.186C73.7244 150.915 73.6242 150.603 73.61 150.28L73.39 145.84C73.3821 145.522 73.2591 145.219 73.0439 144.985C72.8286 144.751 72.5359 144.604 72.22 144.57L66.82 144.35C66.4752 144.382 66.1519 144.532 65.9043 144.774C65.6566 145.016 65.4998 145.336 65.46 145.68L64.75 149.76C64.6696 150.146 64.4898 150.503 64.2284 150.798C63.9671 151.093 63.6332 151.314 63.26 151.44C62.5392 151.648 61.8313 151.898 61.14 152.19C60.8306 152.349 60.4878 152.432 60.14 152.432C59.7922 152.432 59.4494 152.349 59.14 152.19L55.37 148.93C54.97 148.57 54.08 148.78 53.37 149.39L50.13 152.25C49.45 152.86 49.13 153.7 49.48 154.15L52.38 158.15C52.5163 158.515 52.562 158.908 52.5133 159.294C52.4645 159.681 52.3227 160.05 52.1 160.37C51.82 160.86 51.58 161.37 51.35 161.88C51.2106 162.256 50.9808 162.593 50.6809 162.86C50.381 163.126 50.0201 163.315 49.63 163.41L44.91 163.72C44.5744 163.77 44.2665 163.935 44.0387 164.187C43.8108 164.438 43.677 164.761 43.66 165.1L43.36 169.96C43.3186 170.284 43.3976 170.611 43.582 170.88C43.7663 171.15 44.0433 171.342 44.36 171.42L49.21 172.14C49.5209 172.21 49.8073 172.361 50.0395 172.58C50.2717 172.798 50.4411 173.074 50.53 173.38C50.7624 174.243 51.0633 175.085 51.43 175.9C51.5101 176.292 51.4888 176.698 51.368 177.08C51.2473 177.461 51.0311 177.805 50.74 178.08L48.28 180.78C47.64 181.47 47.43 182.35 47.79 182.78L51.53 186.84C51.9 187.23 52.77 187.14 53.53 186.63L56.71 184.38C57.0026 184.139 57.3503 183.975 57.7221 183.902C58.0938 183.828 58.4779 183.848 58.84 183.96C59.6875 184.438 60.5741 184.842 61.49 185.17C61.7803 185.315 62.0263 185.535 62.2023 185.808C62.3782 186.081 62.4776 186.396 62.49 186.72L62.71 191.16C62.7182 191.476 62.8415 191.779 63.0569 192.011C63.2724 192.243 63.565 192.388 63.88 192.42L69.28 192.64C69.6235 192.612 69.9464 192.464 70.1928 192.223C70.4393 191.982 70.5939 191.663 70.63 191.32L71.35 187.23C71.4314 186.845 71.6115 186.487 71.8727 186.193C72.1339 185.898 72.4673 185.677 72.84 185.55C73.5603 185.34 74.2682 185.09 74.96 184.8C75.2701 184.644 75.6126 184.562 75.96 184.562C76.3074 184.562 76.6499 184.644 76.96 184.8L80.72 188C81.13 188.35 82.01 188.14 82.72 187.54L85.96 184.67C86.64 184.07 86.96 183.22 86.61 182.78L83.71 178.78C83.5737 178.413 83.528 178.019 83.5767 177.631C83.6255 177.242 83.7672 176.872 83.99 176.55C84.26 176.06 84.51 175.55 84.74 175.04C84.8777 174.664 85.1071 174.327 85.4074 174.062C85.7078 173.797 86.0695 173.61 86.46 173.52L91.18 173.2C91.5164 173.151 91.8254 172.987 92.0535 172.735C92.2817 172.483 92.4149 172.16 92.43 171.82L92.73 166.96C92.7513 166.649 92.6628 166.341 92.4801 166.089C92.2973 165.837 92.0319 165.657 91.73 165.58ZM78.63 168.9C78.4147 171.692 77.1211 174.291 75.0232 176.147C72.9253 178.002 70.1877 178.968 67.39 178.84C66.0223 178.805 64.6756 178.495 63.4297 177.93C62.1839 177.364 61.0643 176.554 60.1373 175.548C59.2103 174.542 58.4948 173.359 58.0332 172.072C57.5715 170.784 57.3732 169.416 57.45 168.05C57.6653 165.258 58.9589 162.659 61.0568 160.803C63.1547 158.948 65.8923 157.982 68.69 158.11C70.0577 158.145 71.4044 158.455 72.6503 159.02C73.8961 159.586 75.0157 160.396 75.9427 161.402C76.8697 162.408 77.5853 163.591 78.0469 164.878C78.5085 166.166 78.7068 167.534 78.63 168.9Z" fill="#F0F0F0"/>
<path d="M51.41 194.67L49.12 197.33C48.9571 197.49 48.7546 197.604 48.5333 197.66C48.3119 197.717 48.0796 197.713 47.86 197.65C47.2452 197.462 46.6166 197.321 45.98 197.23C45.7218 197.12 45.4951 196.947 45.3205 196.727C45.1459 196.507 45.0289 196.247 44.98 195.97L44.29 193.45C44.11 192.8 43.66 192.33 43.29 192.45L39.39 193.16C39.01 193.23 38.73 193.79 38.76 194.42L38.91 197.21C38.9438 197.481 38.9104 197.755 38.8127 198.01C38.715 198.265 38.5561 198.491 38.35 198.67C37.734 198.993 37.1483 199.372 36.6 199.8C36.3992 199.921 36.1693 199.985 35.935 199.985C35.7007 199.985 35.4708 199.921 35.27 199.8L32.49 198.23C32.294 198.111 32.0611 198.069 31.836 198.112C31.6109 198.154 31.4093 198.278 31.27 198.46L29 201.62C28.8873 201.84 28.8536 202.092 28.9046 202.335C28.9555 202.577 29.0881 202.794 29.28 202.95L31.48 204.95C31.6831 205.147 31.8314 205.394 31.9103 205.665C31.9892 205.937 31.996 206.225 31.93 206.5C31.7816 207.016 31.6614 207.541 31.57 208.07C31.5461 208.324 31.4608 208.569 31.3214 208.783C31.1821 208.998 30.9929 209.175 30.77 209.3L27.35 210.3C26.98 210.41 26.76 211.02 26.87 211.67L27.36 214.73C27.46 215.38 27.87 215.89 28.26 215.86L31.78 215.62C32.17 215.62 32.7 216.07 33.01 216.62C33.21 216.98 33.42 217.32 33.64 217.62C33.8174 217.85 33.935 218.12 33.9821 218.406C34.0293 218.692 34.0045 218.986 33.91 219.26L32.29 222.26C32.1818 222.479 32.1576 222.731 32.2221 222.966C32.2866 223.202 32.4353 223.406 32.64 223.54L35.47 225.59C35.6482 225.735 35.8706 225.813 36.1 225.813C36.3294 225.813 36.5519 225.735 36.73 225.59L39 223C39.1629 222.84 39.3654 222.726 39.5868 222.67C39.8081 222.613 40.0405 222.617 40.26 222.68C40.8749 222.868 41.5034 223.009 42.14 223.1C42.3975 223.209 42.6238 223.38 42.7985 223.598C42.9731 223.816 43.0905 224.075 43.14 224.35L43.83 226.88C44.01 227.53 44.46 228 44.83 227.88L48.73 227.17C49.11 227.1 49.39 226.54 49.36 225.91L49.21 223.11C49.1782 222.84 49.2136 222.566 49.3131 222.313C49.4125 222.061 49.5729 221.836 49.78 221.66C50.3895 221.327 50.9714 220.946 51.52 220.52C51.7215 220.401 51.9511 220.339 52.185 220.339C52.4189 220.339 52.6485 220.401 52.85 220.52L55.63 222.09C55.826 222.209 56.0589 222.251 56.284 222.208C56.5091 222.166 56.7107 222.042 56.85 221.86L59.05 218.67C59.1609 218.449 59.1936 218.198 59.1427 217.956C59.0918 217.714 58.9604 217.497 58.77 217.34L56.57 215.34C56.3661 215.144 56.2172 214.897 56.1382 214.625C56.0593 214.353 56.053 214.065 56.12 213.79C56.2695 213.277 56.3897 212.756 56.48 212.23C56.5031 211.975 56.5881 211.73 56.7275 211.516C56.8669 211.301 57.0566 211.124 57.28 211L60.71 210C61.07 209.89 61.29 209.27 61.18 208.63L60.69 205.57C60.59 204.92 60.19 204.41 59.79 204.44L56.28 204.68C55.88 204.68 55.35 204.23 55.04 203.68C54.85 203.33 54.64 202.99 54.41 202.68C54.235 202.451 54.1189 202.183 54.0719 201.899C54.0248 201.614 54.0482 201.323 54.14 201.05L55.77 198.05C55.8773 197.83 55.8999 197.577 55.8336 197.341C55.7672 197.106 55.6165 196.902 55.41 196.77L52.58 194.72C52.415 194.59 52.2131 194.515 52.0031 194.506C51.7931 194.497 51.5855 194.554 51.41 194.67ZM48.41 203.89C50.0183 205.092 51.0961 206.872 51.4152 208.854C51.7344 210.836 51.2699 212.864 50.12 214.51C49.5743 215.327 48.87 216.026 48.049 216.565C47.2279 217.104 46.3068 217.473 45.3403 217.649C44.3739 217.826 43.3819 217.806 42.4233 217.591C41.4647 217.377 40.559 216.972 39.76 216.4C38.1431 215.204 37.0552 213.426 36.7267 211.442C36.3981 209.457 36.8548 207.423 38 205.77C38.5465 204.948 39.2533 204.245 40.0781 203.703C40.9028 203.161 41.8286 202.791 42.7997 202.616C43.7709 202.44 44.7676 202.463 45.7299 202.682C46.6922 202.9 47.6004 203.312 48.4 203.89H48.41Z" fill="#F0F0F0"/>
<path d="M383.26 167L383.56 171.86C383.571 172.201 383.703 172.527 383.932 172.779C384.161 173.032 384.472 173.195 384.81 173.24L389.53 173.56C389.92 173.652 390.281 173.839 390.581 174.104C390.881 174.369 391.111 174.705 391.25 175.08C391.47 175.596 391.717 176.1 391.99 176.59C392.211 176.912 392.353 177.282 392.404 177.67C392.454 178.058 392.412 178.452 392.28 178.82L389.37 182.82C389.05 183.26 389.37 184.11 390.03 184.71L393.27 187.58C393.95 188.18 394.84 188.39 395.27 188.04L399.04 184.77C399.35 184.614 399.693 184.532 400.04 184.532C400.387 184.532 400.73 184.614 401.04 184.77C401.728 185.062 402.432 185.312 403.15 185.52C403.523 185.647 403.856 185.868 404.117 186.163C404.379 186.457 404.559 186.815 404.64 187.2L405.36 191.29C405.398 191.632 405.553 191.95 405.799 192.191C406.045 192.432 406.367 192.58 406.71 192.61L412.11 192.39C412.426 192.359 412.72 192.214 412.937 191.982C413.154 191.75 413.279 191.447 413.29 191.13L413.51 186.69C413.522 186.366 413.622 186.051 413.798 185.778C413.974 185.505 414.22 185.285 414.51 185.14C415.422 184.81 416.305 184.406 417.15 183.93C417.514 183.818 417.899 183.798 418.273 183.872C418.646 183.945 418.995 184.109 419.29 184.35L422.46 186.6C423.18 187.11 424.06 187.2 424.46 186.81L428.2 182.75C428.57 182.35 428.35 181.47 427.72 180.75L425.26 178.05C424.969 177.775 424.753 177.431 424.632 177.05C424.511 176.668 424.49 176.262 424.57 175.87C424.932 175.054 425.233 174.211 425.47 173.35C425.557 173.045 425.725 172.769 425.955 172.551C426.186 172.332 426.471 172.18 426.78 172.11L431.63 171.39C431.945 171.308 432.219 171.115 432.403 170.847C432.586 170.578 432.667 170.253 432.63 169.93L432.32 165.07C432.307 164.73 432.174 164.405 431.946 164.153C431.717 163.901 431.407 163.737 431.07 163.69L426.36 163.38C425.968 163.288 425.604 163.1 425.303 162.833C425.001 162.566 424.77 162.228 424.63 161.85C424.41 161.34 424.16 160.85 423.89 160.34C423.669 160.02 423.527 159.651 423.477 159.265C423.426 158.879 423.468 158.486 423.6 158.12L426.51 154.12C426.83 153.67 426.51 152.83 425.85 152.22L422.62 149.36C421.93 148.75 421.05 148.54 420.62 148.9L416.85 152.16C416.541 152.319 416.198 152.402 415.85 152.402C415.502 152.402 415.159 152.319 414.85 152.16C414.162 151.868 413.458 151.618 412.74 151.41C412.367 151.284 412.033 151.063 411.772 150.768C411.51 150.473 411.33 150.116 411.25 149.73L410.53 145.65C410.492 145.307 410.338 144.987 410.092 144.745C409.846 144.503 409.524 144.352 409.18 144.32L403.78 144.54C403.463 144.572 403.169 144.719 402.954 144.953C402.738 145.187 402.616 145.492 402.61 145.81L402.39 150.25C402.375 150.572 402.274 150.885 402.098 151.155C401.923 151.426 401.678 151.645 401.39 151.79C400.48 152.124 399.597 152.528 398.75 153C398.389 153.111 398.005 153.132 397.634 153.061C397.263 152.989 396.914 152.827 396.62 152.59L393.44 150.33C392.72 149.82 391.84 149.73 391.44 150.13L387.7 154.18C387.33 154.58 387.55 155.46 388.18 156.18L390.64 158.88C390.932 159.154 391.15 159.498 391.272 159.879C391.395 160.261 391.418 160.667 391.34 161.06C390.97 161.874 390.666 162.717 390.43 163.58C390.342 163.886 390.174 164.162 389.944 164.382C389.713 164.601 389.429 164.756 389.12 164.83L384.27 165.55C383.952 165.624 383.673 165.813 383.487 166.081C383.3 166.349 383.219 166.676 383.26 167ZM407.26 158.08C410.057 157.955 412.793 158.922 414.891 160.776C416.988 162.631 418.282 165.229 418.5 168.02C418.577 169.387 418.378 170.755 417.916 172.044C417.454 173.332 416.737 174.515 415.809 175.521C414.881 176.528 413.76 177.338 412.513 177.902C411.266 178.467 409.919 178.776 408.55 178.81C405.752 178.938 403.015 177.972 400.917 176.117C398.819 174.261 397.525 171.662 397.31 168.87C397.239 167.504 397.442 166.138 397.908 164.852C398.374 163.567 399.093 162.387 400.022 161.384C400.952 160.381 402.073 159.574 403.319 159.012C404.566 158.45 405.913 158.143 407.28 158.11L407.26 158.08Z" fill="#F0F0F0"/>
<path d="M435.52 180.68L432.69 182.68C432.484 182.812 432.333 183.016 432.266 183.251C432.2 183.487 432.223 183.74 432.33 183.96L433.95 186.96C434.044 187.232 434.07 187.523 434.024 187.808C433.979 188.092 433.864 188.361 433.69 188.59C433.46 188.93 433.25 189.27 433.06 189.59C432.74 190.17 432.21 190.65 431.82 190.59L428.3 190.35C427.91 190.35 427.51 190.83 427.41 191.48L426.91 194.54C426.81 195.19 427.02 195.8 427.39 195.91L430.82 196.91C431.041 197.037 431.229 197.215 431.368 197.429C431.507 197.642 431.594 197.886 431.62 198.14C431.702 198.671 431.822 199.196 431.98 199.71C432.044 199.985 432.036 200.272 431.957 200.544C431.879 200.815 431.731 201.062 431.53 201.26L429.33 203.26C429.135 203.414 429 203.631 428.949 203.874C428.898 204.117 428.933 204.371 429.05 204.59L431.25 207.77C431.389 207.952 431.591 208.076 431.816 208.118C432.041 208.161 432.274 208.119 432.47 208L435.24 206.43C435.441 206.309 435.671 206.245 435.905 206.245C436.139 206.245 436.369 206.309 436.57 206.43C437.122 206.853 437.707 207.231 438.32 207.56C438.526 207.739 438.685 207.966 438.784 208.22C438.884 208.474 438.92 208.749 438.89 209.02L438.74 211.81C438.74 212.44 438.99 213 439.37 213.07L443.26 213.78C443.64 213.85 444.1 213.38 444.26 212.73L444.95 210.21C445.026 209.956 445.161 209.723 445.343 209.53C445.526 209.338 445.75 209.19 446 209.1C446.634 209.01 447.259 208.87 447.87 208.68C448.089 208.616 448.322 208.612 448.544 208.668C448.765 208.724 448.968 208.839 449.13 209L451.43 211.66C451.608 211.805 451.831 211.883 452.06 211.883C452.289 211.883 452.512 211.805 452.69 211.66L455.52 209.61C455.725 209.476 455.873 209.272 455.938 209.036C456.002 208.801 455.978 208.549 455.87 208.33L454.25 205.33C454.156 205.058 454.13 204.767 454.176 204.482C454.221 204.198 454.336 203.929 454.51 203.7C454.74 203.36 454.95 203.02 455.14 202.7C455.46 202.12 455.99 201.64 456.38 201.7L459.9 201.94C460.29 201.94 460.69 201.46 460.8 200.81L461.29 197.75C461.39 197.11 461.18 196.49 460.81 196.38L457.38 195.38C457.158 195.255 456.97 195.078 456.832 194.863C456.694 194.649 456.611 194.404 456.59 194.15C456.499 193.621 456.378 193.096 456.23 192.58C456.162 192.307 456.166 192.021 456.243 191.751C456.321 191.481 456.468 191.235 456.67 191.04L458.87 189.04C459.064 188.888 459.2 188.673 459.253 188.432C459.306 188.191 459.273 187.939 459.16 187.72L457 184.48C456.861 184.298 456.659 184.174 456.434 184.132C456.209 184.089 455.976 184.131 455.78 184.25L453 185.82C452.798 185.939 452.569 186.001 452.335 186.001C452.101 186.001 451.872 185.939 451.67 185.82C451.118 185.394 450.533 185.013 449.92 184.68C449.714 184.503 449.555 184.278 449.456 184.026C449.356 183.773 449.32 183.5 449.35 183.23L449.5 180.43C449.5 179.8 449.25 179.24 448.87 179.17L444.98 178.46C444.6 178.39 444.15 178.86 443.98 179.51L443.29 182.04C443.233 182.321 443.106 182.583 442.921 182.801C442.735 183.02 442.498 183.188 442.23 183.29C441.597 183.381 440.971 183.522 440.36 183.71C440.14 183.773 439.908 183.777 439.687 183.72C439.465 183.664 439.263 183.55 439.1 183.39L436.8 180.73C436.626 180.573 436.403 180.482 436.169 180.473C435.935 180.464 435.705 180.537 435.52 180.68ZM450.14 191.82C451.293 193.464 451.761 195.492 451.444 197.475C451.126 199.457 450.049 201.239 448.44 202.44C447.642 203.012 446.736 203.418 445.778 203.633C444.82 203.849 443.828 203.869 442.862 203.694C441.896 203.519 440.974 203.151 440.153 202.612C439.331 202.074 438.626 201.376 438.08 200.56C436.927 198.914 436.461 196.883 436.78 194.898C437.099 192.914 438.179 191.132 439.79 189.93C440.588 189.359 441.493 188.954 442.451 188.739C443.409 188.525 444.4 188.505 445.366 188.681C446.331 188.858 447.251 189.226 448.072 189.766C448.892 190.305 449.595 191.003 450.14 191.82Z" fill="#F0F0F0"/>
<path d="M100 331.29L175.12 374.74L175.39 374.57L177.49 373.37L179.49 372.21C189.49 366.42 196.56 362.15 196.02 358.89C195.62 356.42 191.15 355.02 187.46 354.58C185.462 354.42 183.519 353.851 181.75 352.91C181.085 352.608 180.515 352.13 180.103 351.527C179.69 350.924 179.451 350.219 179.41 349.49C179.41 347.97 180.53 346.37 182.7 345.11C186.7 342.81 192.7 342.56 196.2 344.57C197.521 345.291 198.545 346.457 199.09 347.86C199.86 350 202.29 352.58 206.57 352.8C212.48 353.12 219.1 349.3 230.01 342.98L232.6 341.48L157.6 298.07L100 331.29ZM300.23 380.54C297.87 381.88 295.59 383.15 293.35 384.39C284.35 389.39 277.87 392.97 278.35 395.92C278.513 396.653 278.94 397.301 279.55 397.74C281.21 399.09 284.25 399.91 286.91 400.22C288.906 400.38 290.849 400.945 292.62 401.88C293.285 402.188 293.855 402.671 294.268 403.277C294.682 403.882 294.925 404.588 294.97 405.32C294.934 406.16 294.629 406.966 294.1 407.62C293.427 408.461 292.594 409.161 291.65 409.68C287.65 411.99 281.65 412.22 278.16 410.23C276.844 409.505 275.824 408.341 275.28 406.94C274.5 404.8 272.08 402.22 267.79 401.99C262.79 401.71 257.64 404.83 249.79 409.58C247.7 410.85 245.33 412.28 242.79 413.81L246.68 416.04L336.96 468.12C360.099 463.003 382.557 455.182 403.87 444.82C405.283 444.153 406.683 443.443 408.07 442.69L300.23 380.54Z" fill="#2B32B2"/>
<path opacity="0.2" d="M100 331.29L175.12 374.74L175.39 374.57L177.49 373.37L179.49 372.21C189.49 366.42 196.56 362.15 196.02 358.89C195.62 356.42 191.15 355.02 187.46 354.58C185.462 354.42 183.519 353.851 181.75 352.91C181.085 352.608 180.515 352.13 180.103 351.527C179.69 350.924 179.451 350.219 179.41 349.49C179.41 347.97 180.53 346.37 182.7 345.11C186.7 342.81 192.7 342.56 196.2 344.57C197.521 345.291 198.545 346.457 199.09 347.86C199.86 350 202.29 352.58 206.57 352.8C212.48 353.12 219.1 349.3 230.01 342.98L232.6 341.48L157.6 298.07L100 331.29ZM300.23 380.54C297.87 381.88 295.59 383.15 293.35 384.39C284.35 389.39 277.87 392.97 278.35 395.92C278.513 396.653 278.94 397.301 279.55 397.74C281.21 399.09 284.25 399.91 286.91 400.22C288.906 400.38 290.849 400.945 292.62 401.88C293.285 402.188 293.855 402.671 294.268 403.277C294.682 403.882 294.925 404.588 294.97 405.32C294.934 406.16 294.629 406.966 294.1 407.62C293.427 408.461 292.594 409.161 291.65 409.68C287.65 411.99 281.65 412.22 278.16 410.23C276.844 409.505 275.824 408.341 275.28 406.94C274.5 404.8 272.08 402.22 267.79 401.99C262.79 401.71 257.64 404.83 249.79 409.58C247.7 410.85 245.33 412.28 242.79 413.81L246.68 416.04L336.96 468.12C360.099 463.003 382.557 455.182 403.87 444.82C405.283 444.153 406.683 443.443 408.07 442.69L300.23 380.54Z" fill="white"/>
<path d="M177.31 200.69L128.77 151.15L80.23 256.74L100 245.33V331.3L157.54 298.07V212.1L177.31 200.69Z" fill="#2B32B2"/>
<path d="M370.92 286.84L365.1 289L363.9 284.94L368.81 285.04L370.92 286.84Z" fill="black"/>
<path d="M368.42 275.44C368.42 275.44 371.12 278.01 371.96 278.84C372.8 279.67 371.46 285.59 370.96 286.84L368.85 285.04C368.902 286.776 369.181 288.497 369.68 290.16C370.08 292.01 371.3 295.16 370.74 298.43C369.92 303.33 366.36 308.51 361.74 312.75C357.12 316.99 353.37 318.2 351.09 318.37C348.81 318.54 347.32 317.74 346.58 316.29C345.84 314.84 368.42 275.44 368.42 275.44Z" fill="#263238"/>
<path d="M347.06 277L345.54 275.46C344.64 276.19 346.66 278.57 347.24 281.67C348.181 286.273 348.497 290.982 348.18 295.67C347.27 304.02 345.42 310.36 345.04 314.1C344.51 319.1 353.33 318.82 360.71 311.76C364.37 308.25 369.49 300.53 369.38 296.7C369.27 292.87 367.3 288.45 367.38 285.54C367.46 282.63 369.27 278.2 368.44 275.45C367.98 273.94 365.44 271.7 363.14 269.87C361.06 268.19 359.14 264.37 358.22 265.58L359.04 266.88C359.36 268.12 358.73 271.1 356.09 274.27C354.75 275.84 350.25 279.93 347.06 277Z" fill="#455A64"/>
<path opacity="0.15" d="M353.65 276.47C352.05 277.62 350.02 278.47 348.2 277.76H348.14C348.724 278.225 349.191 278.82 349.505 279.496C349.819 280.173 349.972 280.914 349.95 281.66C350.01 284.4 351.45 302.91 351.45 302.91C351.45 302.91 351.19 286.85 351.17 283.8C351.17 279.29 351.61 278.37 353.66 276.49L353.65 276.47Z" fill="black"/>
<path d="M345 314.09C345.32 310.93 346.69 305.92 347.65 299.4C347.99 301.4 347.7 303.4 347.97 303.9C348.62 305.19 353.15 303.9 355.56 302.73C357.97 301.56 357.68 297 358.3 292.13C358.92 287.26 364.08 287.92 368.2 290.48C368.805 292.502 369.187 294.585 369.34 296.69C369.45 300.52 364.34 308.24 360.67 311.75C353.33 318.81 344.51 319.1 345 314.09Z" fill="#37474F"/>
<path opacity="0.15" d="M354.42 281C354.539 281.115 354.699 281.18 354.865 281.18C355.031 281.18 355.191 281.115 355.31 281C355.369 280.945 355.416 280.878 355.448 280.804C355.48 280.73 355.496 280.651 355.496 280.57C355.496 280.489 355.48 280.41 355.448 280.336C355.416 280.262 355.369 280.195 355.31 280.14C355.189 280.024 355.028 279.959 354.86 279.959C354.692 279.959 354.531 280.024 354.41 280.14C354.351 280.195 354.303 280.262 354.271 280.336C354.239 280.411 354.223 280.491 354.224 280.572C354.225 280.653 354.243 280.733 354.277 280.807C354.311 280.881 354.359 280.946 354.42 281Z" fill="black"/>
<path opacity="0.15" d="M354.38 285.44C354.508 285.547 354.673 285.602 354.84 285.593C355.007 285.583 355.164 285.511 355.28 285.39C355.337 285.334 355.383 285.267 355.414 285.193C355.445 285.12 355.462 285.04 355.462 284.96C355.462 284.88 355.445 284.8 355.414 284.727C355.383 284.653 355.337 284.586 355.28 284.53C355.154 284.418 354.988 284.36 354.82 284.37C354.651 284.379 354.493 284.455 354.38 284.58C354.323 284.636 354.277 284.703 354.246 284.777C354.215 284.85 354.198 284.93 354.198 285.01C354.198 285.09 354.215 285.17 354.246 285.243C354.277 285.317 354.323 285.384 354.38 285.44Z" fill="black"/>
<path opacity="0.15" d="M354.35 289.83C354.471 289.946 354.632 290.011 354.8 290.011C354.968 290.011 355.129 289.946 355.25 289.83C355.305 289.77 355.347 289.7 355.374 289.623C355.401 289.547 355.412 289.466 355.408 289.385C355.403 289.303 355.382 289.224 355.347 289.151C355.311 289.078 355.261 289.013 355.2 288.96C355.072 288.853 354.907 288.798 354.74 288.807C354.573 288.817 354.416 288.889 354.3 289.01C354.2 289.126 354.15 289.277 354.159 289.43C354.168 289.583 354.237 289.727 354.35 289.83Z" fill="black"/>
<path opacity="0.15" d="M354.31 294.23C354.438 294.337 354.603 294.392 354.77 294.383C354.937 294.373 355.094 294.301 355.21 294.18C355.269 294.125 355.316 294.058 355.348 293.984C355.38 293.91 355.396 293.831 355.396 293.75C355.396 293.669 355.38 293.59 355.348 293.516C355.316 293.442 355.269 293.375 355.21 293.32C355.091 293.205 354.931 293.14 354.765 293.14C354.599 293.14 354.439 293.205 354.32 293.32C354.254 293.376 354.2 293.445 354.164 293.523C354.127 293.601 354.107 293.686 354.106 293.773C354.105 293.859 354.123 293.945 354.158 294.024C354.193 294.103 354.245 294.173 354.31 294.23Z" fill="black"/>
<path opacity="0.15" d="M354.28 298.62C354.406 298.732 354.572 298.79 354.74 298.78C354.909 298.771 355.067 298.695 355.18 298.57C355.234 298.511 355.276 298.441 355.303 298.366C355.33 298.29 355.342 298.21 355.337 298.129C355.332 298.049 355.312 297.971 355.276 297.899C355.24 297.827 355.191 297.762 355.13 297.71C355.002 297.603 354.837 297.548 354.67 297.557C354.503 297.567 354.346 297.639 354.23 297.76C354.176 297.819 354.134 297.889 354.107 297.964C354.08 298.04 354.068 298.12 354.073 298.201C354.078 298.281 354.098 298.359 354.134 298.431C354.17 298.503 354.219 298.568 354.28 298.62Z" fill="black"/>
<path d="M355 280.76C355.039 280.715 355.064 280.659 355.07 280.6C355.068 280.533 355.041 280.47 354.995 280.422C354.949 280.374 354.886 280.345 354.82 280.34C354.64 280.34 350.39 280.18 347.56 282.9C347.536 282.922 347.517 282.95 347.504 282.98C347.491 283.01 347.484 283.042 347.484 283.075C347.484 283.108 347.491 283.14 347.504 283.17C347.517 283.2 347.536 283.228 347.56 283.25C347.609 283.294 347.674 283.319 347.74 283.319C347.806 283.319 347.871 283.294 347.92 283.25C350.6 280.68 354.76 280.83 354.8 280.84C354.837 280.841 354.874 280.834 354.908 280.82C354.942 280.806 354.974 280.786 355 280.76Z" fill="#263238"/>
<path d="M355 285.15C355.043 285.107 355.068 285.05 355.07 284.99C355.071 284.957 355.066 284.924 355.055 284.894C355.043 284.863 355.026 284.834 355.004 284.81C354.982 284.786 354.955 284.767 354.925 284.753C354.895 284.739 354.863 284.731 354.83 284.73C354.65 284.73 350.4 284.56 347.57 287.29C347.548 287.312 347.53 287.339 347.518 287.368C347.506 287.397 347.499 287.428 347.499 287.46C347.499 287.492 347.506 287.523 347.518 287.552C347.53 287.581 347.548 287.608 347.57 287.63C347.593 287.654 347.621 287.673 347.652 287.687C347.683 287.7 347.716 287.707 347.75 287.707C347.784 287.707 347.817 287.7 347.848 287.687C347.879 287.673 347.907 287.654 347.93 287.63C350.6 285.07 354.76 285.22 354.81 285.22C354.845 285.224 354.88 285.219 354.913 285.207C354.946 285.195 354.976 285.175 355 285.15Z" fill="#263238"/>
<path d="M355 289.55C355.043 289.507 355.068 289.45 355.07 289.39C355.07 289.323 355.044 289.258 354.997 289.21C354.951 289.161 354.887 289.133 354.82 289.13C354.64 289.13 350.4 288.96 347.56 291.69C347.536 291.712 347.517 291.738 347.505 291.767C347.492 291.796 347.485 291.828 347.485 291.86C347.485 291.892 347.492 291.924 347.505 291.953C347.517 291.982 347.536 292.008 347.56 292.03C347.583 292.054 347.611 292.073 347.642 292.087C347.673 292.1 347.706 292.107 347.74 292.107C347.774 292.107 347.807 292.1 347.838 292.087C347.869 292.073 347.897 292.054 347.92 292.03C350.59 289.47 354.76 289.62 354.8 289.62C354.836 289.624 354.873 289.62 354.908 289.608C354.943 289.596 354.974 289.576 355 289.55Z" fill="#263238"/>
<path d="M354.92 293.94C354.943 293.92 354.961 293.896 354.973 293.868C354.986 293.84 354.991 293.81 354.99 293.78C354.991 293.748 354.986 293.715 354.975 293.685C354.963 293.655 354.946 293.627 354.923 293.604C354.901 293.58 354.874 293.562 354.844 293.549C354.814 293.536 354.782 293.53 354.75 293.53C354.57 293.53 350.32 293.36 347.49 296.08C347.444 296.127 347.419 296.19 347.419 296.255C347.419 296.32 347.444 296.383 347.49 296.43C347.539 296.474 347.604 296.499 347.67 296.499C347.736 296.499 347.801 296.474 347.85 296.43C350.52 293.86 354.69 294.02 354.73 294.02C354.801 294.02 354.87 293.991 354.92 293.94Z" fill="#263238"/>
<path d="M354.89 298.34C354.931 298.296 354.956 298.24 354.96 298.18C354.961 298.147 354.956 298.114 354.945 298.084C354.934 298.053 354.916 298.024 354.894 298C354.872 297.976 354.845 297.957 354.815 297.943C354.785 297.929 354.753 297.921 354.72 297.92C354.54 297.92 350.29 297.75 347.45 300.47C347.426 300.492 347.407 300.518 347.395 300.547C347.382 300.576 347.375 300.608 347.375 300.64C347.375 300.672 347.382 300.704 347.395 300.733C347.407 300.762 347.426 300.788 347.45 300.81C347.473 300.834 347.501 300.853 347.532 300.867C347.563 300.88 347.596 300.887 347.63 300.887C347.664 300.887 347.697 300.88 347.728 300.867C347.759 300.853 347.787 300.834 347.81 300.81C350.49 298.25 354.65 298.4 354.69 298.4C354.726 298.404 354.762 298.4 354.796 298.39C354.83 298.38 354.862 298.363 354.89 298.34Z" fill="#263238"/>
<path d="M282.27 157.14C281.531 168.873 281.451 180.638 282.03 192.38C282.84 211.26 283.92 220.27 292.69 231.71C300.52 241.93 343.46 276.42 346.91 279.91C346.91 279.91 360.91 280.17 360.54 266.45C360.54 266.45 349.97 248.53 342.92 236.37C335.87 224.21 327.09 218.77 327.09 218.77L334.37 163.15L282.27 157.14Z" fill="#263238"/>
<path d="M329.46 162.69L334.34 163.15V163.35L327.34 216.98L327.07 218.33H327.16L327.11 218.74C331.953 222.114 336.165 226.315 339.55 231.15C337.98 236.03 334.77 244.61 334.77 244.61C334.53 245.93 338.77 250.95 337.77 267.01C337.7 268.17 337.53 269.85 337.33 271.66C326.74 262.79 312.33 250.66 302.53 241.66C301.9 239.2 299.97 231.1 300.25 224.79C300.53 218.48 301.19 187.57 301.19 187.57C298.255 186.087 295.618 184.077 293.41 181.64C291.576 179.696 290.229 177.345 289.48 174.78C287.647 170.785 286.074 166.677 284.77 162.48L329.46 162.69Z" fill="black"/>
<path d="M319.66 338.39L313.73 336.53L315.44 332.66L319.19 335.71L319.66 338.39Z" fill="black"/>
<path d="M325.16 328C325.16 328 325.59 331.64 325.7 332.78C325.81 333.92 320.9 337.71 319.7 338.36L319.23 335.68C318.142 337.052 317.235 338.558 316.53 340.16C315.64 341.84 314.53 344.99 311.96 347.21C308.12 350.52 301.96 352.37 295.61 352.87C289.26 353.37 285.53 352.01 283.61 350.76C281.69 349.51 281.08 347.98 281.45 346.41C281.82 344.84 325.16 328 325.16 328Z" fill="#263238"/>
<path d="M307.49 316.31L307.31 314.2C306.13 314.2 306.15 317.29 304.58 320.05C302.289 324.191 299.468 328.017 296.19 331.43C290.03 337.36 284.45 341.15 281.7 343.82C278.02 347.38 285.07 352.5 295.43 351.51C300.58 351.01 309.61 348.13 312.03 345.09C314.45 342.05 315.8 337.43 317.75 335.21C319.7 332.99 324.01 330.67 325.16 328.03C325.8 326.58 325.25 323.29 324.69 320.49C324.17 317.93 325.16 313.8 323.69 314.18L323.47 315.69C322.91 316.84 320.47 318.77 316.35 319.62C314.26 320.05 308.08 320.49 307.49 316.31Z" fill="#455A64"/>
<path opacity="0.15" d="M313 319.87C311 319.79 308.84 319.25 307.92 317.56V317.51C308.073 318.237 308.05 318.99 307.854 319.707C307.657 320.423 307.293 321.083 306.79 321.63C305 323.8 294 339 294 339C294 339 304.29 326.39 306.27 324C309.19 320.48 310.15 320 312.98 319.83L313 319.87Z" fill="black"/>
<path d="M281.7 343.82C284.02 341.56 288.36 338.5 293.37 334.04C292.37 335.77 290.81 337.15 290.68 337.72C290.34 339.12 294.68 340.86 297.35 341.41C300.02 341.96 302.75 338.26 306.41 334.86C310.07 331.46 313.66 335.1 315.19 339.58C314.336 341.524 313.277 343.371 312.03 345.09C309.61 348.09 300.58 351.01 295.43 351.51C285.07 352.5 278 347.38 281.7 343.82Z" fill="#37474F"/>
<path opacity="0.15" d="M310.6 323.88C310.632 324.043 310.726 324.188 310.862 324.283C310.998 324.378 311.166 324.416 311.33 324.39C311.41 324.379 311.488 324.352 311.558 324.311C311.628 324.269 311.689 324.215 311.737 324.149C311.786 324.084 311.821 324.01 311.84 323.931C311.859 323.852 311.863 323.77 311.85 323.69C311.818 323.527 311.725 323.382 311.588 323.287C311.452 323.192 311.284 323.154 311.12 323.18C311.04 323.191 310.962 323.218 310.892 323.259C310.822 323.301 310.761 323.355 310.713 323.421C310.664 323.486 310.629 323.56 310.61 323.639C310.591 323.718 310.587 323.8 310.6 323.88Z" fill="black"/>
<path opacity="0.15" d="M307.7 327.27C307.732 327.433 307.826 327.578 307.962 327.673C308.098 327.768 308.266 327.806 308.43 327.78C308.511 327.769 308.589 327.742 308.659 327.701C308.729 327.66 308.791 327.605 308.84 327.54C308.889 327.475 308.925 327.401 308.946 327.322C308.966 327.243 308.971 327.161 308.96 327.08C308.926 326.918 308.832 326.775 308.696 326.68C308.56 326.586 308.394 326.546 308.23 326.57C308.149 326.58 308.07 326.606 307.999 326.647C307.928 326.687 307.866 326.742 307.816 326.807C307.767 326.873 307.731 326.947 307.711 327.027C307.691 327.106 307.687 327.189 307.7 327.27Z" fill="black"/>
<path opacity="0.15" d="M304.8 330.65C304.832 330.813 304.926 330.958 305.062 331.053C305.198 331.148 305.366 331.186 305.53 331.16C305.611 331.15 305.69 331.124 305.761 331.083C305.832 331.043 305.894 330.988 305.944 330.923C305.993 330.857 306.029 330.783 306.049 330.703C306.069 330.624 306.073 330.541 306.06 330.46C306.028 330.297 305.934 330.154 305.798 330.06C305.661 329.967 305.493 329.931 305.33 329.96C305.25 329.97 305.172 329.996 305.102 330.036C305.031 330.076 304.97 330.13 304.92 330.194C304.871 330.258 304.835 330.332 304.814 330.41C304.794 330.488 304.789 330.57 304.8 330.65Z" fill="black"/>
<path opacity="0.15" d="M301.91 334C301.939 334.162 302.031 334.307 302.166 334.402C302.3 334.497 302.467 334.536 302.63 334.51C302.711 334.5 302.79 334.474 302.861 334.433C302.932 334.393 302.994 334.338 303.044 334.273C303.093 334.207 303.129 334.133 303.149 334.053C303.169 333.974 303.173 333.891 303.16 333.81C303.128 333.647 303.034 333.502 302.898 333.407C302.762 333.312 302.594 333.274 302.43 333.3C302.35 333.311 302.272 333.338 302.202 333.379C302.132 333.421 302.071 333.475 302.023 333.541C301.974 333.606 301.939 333.68 301.92 333.759C301.901 333.838 301.897 333.92 301.91 334Z" fill="black"/>
<path opacity="0.15" d="M299 337.42C299.013 337.502 299.043 337.581 299.087 337.651C299.131 337.721 299.189 337.782 299.257 337.83C299.325 337.877 299.402 337.911 299.483 337.928C299.565 337.945 299.648 337.946 299.73 337.93C299.81 337.92 299.887 337.894 299.957 337.854C300.027 337.814 300.088 337.76 300.137 337.695C300.185 337.631 300.22 337.558 300.24 337.479C300.259 337.401 300.263 337.32 300.25 337.24C300.221 337.076 300.127 336.93 299.991 336.834C299.854 336.738 299.684 336.701 299.52 336.73C299.44 336.74 299.363 336.766 299.293 336.806C299.223 336.846 299.162 336.9 299.113 336.964C299.065 337.029 299.03 337.102 299.01 337.181C298.991 337.259 298.987 337.34 299 337.42Z" fill="black"/>
<path d="M311.26 324C311.321 323.994 311.378 323.966 311.42 323.92C311.466 323.873 311.491 323.81 311.491 323.745C311.491 323.68 311.466 323.617 311.42 323.57C309.356 321.891 306.748 321.03 304.09 321.15C304.058 321.152 304.026 321.162 303.997 321.177C303.968 321.192 303.943 321.212 303.922 321.238C303.901 321.263 303.886 321.292 303.877 321.324C303.868 321.355 303.866 321.388 303.87 321.42C303.88 321.485 303.914 321.545 303.966 321.585C304.018 321.626 304.084 321.646 304.15 321.64C306.662 321.544 309.124 322.361 311.08 323.94C311.104 323.962 311.133 323.978 311.164 323.989C311.195 323.999 311.228 324.003 311.26 324Z" fill="#263238"/>
<path d="M308.36 327.41C308.42 327.4 308.476 327.372 308.52 327.33C308.566 327.283 308.591 327.22 308.591 327.155C308.591 327.09 308.566 327.027 308.52 326.98C306.461 325.292 303.85 324.426 301.19 324.55C301.154 324.549 301.118 324.555 301.084 324.569C301.051 324.583 301.021 324.604 300.997 324.631C300.972 324.657 300.954 324.689 300.943 324.723C300.931 324.758 300.928 324.794 300.932 324.83C300.937 324.866 300.949 324.901 300.968 324.931C300.987 324.962 301.013 324.988 301.043 325.008C301.073 325.028 301.107 325.042 301.143 325.047C301.179 325.052 301.215 325.05 301.25 325.04C305 324.67 308.15 327.32 308.18 327.34C308.23 327.383 308.294 327.408 308.36 327.41Z" fill="#263238"/>
<path d="M305.46 330.8C305.491 330.799 305.521 330.792 305.549 330.778C305.577 330.764 305.601 330.744 305.62 330.72C305.645 330.699 305.665 330.673 305.679 330.644C305.693 330.615 305.7 330.583 305.7 330.55C305.7 330.517 305.693 330.485 305.679 330.456C305.665 330.427 305.645 330.401 305.62 330.38C303.566 328.691 300.957 327.825 298.3 327.95C298.235 327.958 298.176 327.99 298.135 328.04C298.094 328.091 298.074 328.155 298.08 328.22C298.09 328.285 298.124 328.345 298.176 328.385C298.228 328.426 298.294 328.446 298.36 328.44C302.12 328.07 305.26 330.72 305.29 330.74C305.337 330.78 305.398 330.802 305.46 330.8Z" fill="#263238"/>
<path d="M302.57 334.19C302.629 334.178 302.685 334.15 302.73 334.11C302.754 334.088 302.773 334.06 302.786 334.03C302.799 334 302.806 333.968 302.806 333.935C302.806 333.902 302.799 333.87 302.786 333.84C302.773 333.81 302.754 333.782 302.73 333.76C300.675 332.074 298.066 331.211 295.41 331.34C295.378 331.344 295.348 331.354 295.32 331.37C295.293 331.385 295.269 331.406 295.249 331.432C295.23 331.457 295.215 331.485 295.207 331.516C295.198 331.547 295.196 331.578 295.2 331.61C295.204 331.642 295.214 331.672 295.23 331.7C295.245 331.727 295.266 331.751 295.292 331.771C295.317 331.79 295.345 331.805 295.376 331.813C295.407 331.822 295.438 331.824 295.47 331.82C297.984 331.725 300.446 332.546 302.4 334.13C302.448 334.169 302.508 334.19 302.57 334.19Z" fill="#263238"/>
<path d="M299.67 337.57C299.701 337.568 299.731 337.56 299.758 337.546C299.786 337.532 299.81 337.513 299.83 337.49C299.852 337.468 299.87 337.441 299.882 337.412C299.894 337.383 299.901 337.352 299.901 337.32C299.901 337.288 299.894 337.257 299.882 337.228C299.87 337.199 299.852 337.172 299.83 337.15C297.771 335.462 295.16 334.596 292.5 334.72C292.435 334.728 292.374 334.76 292.332 334.81C292.289 334.86 292.267 334.924 292.27 334.99C292.282 335.056 292.319 335.116 292.372 335.156C292.426 335.197 292.493 335.216 292.56 335.21C296.31 334.84 299.45 337.49 299.49 337.51C299.514 337.532 299.543 337.548 299.574 337.559C299.605 337.569 299.637 337.573 299.67 337.57Z" fill="#263238"/>
<path d="M343.68 154.09C343.68 154.09 344.91 164.42 345.31 170.67C346.122 181.627 345.173 192.643 342.5 203.3C340.5 212.21 333.24 242.3 332.65 245.45C334.31 252.13 335.51 257.62 333.83 272.5C331.25 295.38 324.65 320.07 324.65 320.07C322.83 322.92 308.56 322.5 304.23 318.86C304.23 318.86 302.86 252.11 302.23 238.15C301.69 226.02 304.6 185.91 304.6 185.91C304.6 185.91 285.18 179.6 282 158.4L343.68 154.09Z" fill="#263238"/>
<path d="M293.16 87.61C286.36 89.88 283.48 93.06 277.03 101.76C270.74 110.25 261.59 122.66 261.59 122.66L228.2 118.94L231.57 135.79C231.57 135.79 255.74 141.85 263.62 142.87C269.52 143.64 272.62 140.45 276.5 135.87C283.41 127.61 292.23 115.42 292.23 115.42L293.16 87.61Z" fill="#F0F0F0"/>
<path d="M327 82.58C327 82.58 307.06 81.78 295 86.48C292.32 87.48 285.34 93.69 283.81 111.21C281.93 132.64 281.81 160.46 281.81 160.46C282.34 162.29 288.47 172.46 306.87 175.31C325.87 178.24 336.72 176.9 346.13 169.56C346.13 152.91 346.18 151.76 346.23 138.86C346.23 130.53 348.75 114.49 350.16 107.52C351.16 102.62 350.16 94.52 347.1 92.52C343.88 90.44 331.92 86.16 331.92 86.16C330.049 85.3213 328.374 84.1021 327 82.58Z" fill="#FAFAFA"/>
<path d="M323.6 83.43C325.01 83.43 326.06 83.43 326.6 83.43C328 84.9245 329.673 86.1364 331.53 87H331.58C331.7 87 343.48 91.26 346.58 93.26C349.16 94.93 350.22 102.51 349.25 107.32C347.89 114.04 345.33 130.19 345.25 138.84C345.25 143.14 345.25 146.14 345.25 148.84C345.25 154.14 345.19 158.33 345.2 169.1C339 173.81 332.3 175.83 322.88 175.83C317.552 175.753 312.237 175.275 306.98 174.4C288.34 171.51 283.16 161.33 282.68 160.28C282.68 157.91 282.92 131.55 284.68 111.28C286.44 91.01 295.22 87.35 295.31 87.28C304.31 83.76 318.05 83.39 323.55 83.39M323.55 82.48C317.33 82.48 303.95 82.93 294.98 86.48C292.3 87.48 285.32 93.69 283.79 111.21C281.91 132.64 281.79 160.46 281.79 160.46C282.32 162.29 288.45 172.46 306.85 175.31C312.14 176.191 317.488 176.672 322.85 176.75C332.63 176.75 339.69 174.53 346.07 169.56C346.07 152.91 346.12 151.76 346.17 138.86C346.17 130.53 348.69 114.49 350.1 107.52C351.1 102.62 350.1 94.52 347.04 92.52C343.82 90.44 331.86 86.16 331.86 86.16C330.011 85.3142 328.356 84.0954 327 82.58C327 82.58 325.72 82.52 323.61 82.52L323.55 82.48Z" fill="#E0E0E0"/>
<path d="M332.06 42.1C337.29 48.77 335.06 56.1 332.58 63.47C329.72 71.85 329.42 74.6 324.4 76.47C327.08 49.79 316.1 79.03 295.88 56.97C292.22 52.97 292.28 42.6 297.29 37.6C304.38 30.5 321.8 29.5 332.06 42.1Z" fill="#37474F"/>
<path d="M332.13 72.27C328.13 73.67 326.31 70.82 326.31 70.82L325.67 81.27C325.67 81.27 330.98 87.97 325.35 89.59C311.48 93.59 310.48 96.42 306.04 101.13C303.98 97.13 305.27 90.66 305.17 88.29L305.68 80.51C304.085 80.5647 302.49 80.3998 300.94 80.02C296.94 78.88 294.25 75.91 293.4 70.42C292.4 63.79 293.4 53.35 296.22 44.42C300.53 41.42 314.69 41.82 323.22 47.74C322.47 55.11 324.4 56.42 324.22 59.6C324.01 63.18 324.22 64.01 325.27 64.6C326.32 65.19 327.41 63.53 327.91 62.5C328.76 60.78 329.47 59.68 331.24 59.34C333.01 59 334.93 59.41 336.39 61.85C338.6 65.57 335 71.26 332.13 72.27Z" fill="#FFA8A7"/>
<path d="M311.55 57.52C311.53 57.8396 311.604 58.1581 311.764 58.4356C311.924 58.7132 312.162 58.9376 312.448 59.0808C312.734 59.224 313.057 59.2796 313.374 59.2408C313.692 59.2019 313.992 59.0703 314.235 58.8623C314.479 58.6544 314.656 58.3793 314.744 58.0715C314.832 57.7636 314.827 57.4366 314.731 57.1313C314.634 56.826 314.45 56.5558 314.201 56.3547C313.952 56.1535 313.649 56.0301 313.33 56C313.113 55.9823 312.895 56.0075 312.688 56.0744C312.481 56.1413 312.289 56.2485 312.124 56.3897C311.958 56.531 311.823 56.7036 311.724 56.8976C311.626 57.0916 311.566 57.3031 311.55 57.52Z" fill="#263238"/>
<path d="M310.85 67.79L304.92 69C304.985 69.3938 305.128 69.7707 305.341 70.1086C305.553 70.4465 305.831 70.7385 306.158 70.9676C306.485 71.1967 306.854 71.3583 307.244 71.4428C307.635 71.5274 308.038 71.5332 308.43 71.46C309.23 71.2798 309.928 70.7969 310.379 70.1126C310.831 69.4284 310.999 68.5959 310.85 67.79Z" fill="#B16668"/>
<path d="M310.18 69.08C309.514 69.0803 308.872 69.3247 308.374 69.7671C307.876 70.2094 307.558 70.8189 307.48 71.48C307.795 71.5305 308.115 71.5305 308.43 71.48C308.99 71.3579 309.505 71.083 309.918 70.6858C310.331 70.2886 310.626 69.7847 310.77 69.23C310.579 69.1588 310.382 69.1085 310.18 69.08Z" fill="#F28F8F"/>
<path d="M297.07 52.21L301.5 50C301.36 49.7124 301.163 49.4557 300.923 49.2451C300.682 49.0344 300.401 48.8741 300.097 48.7735C299.794 48.6728 299.473 48.634 299.154 48.6591C298.835 48.6843 298.524 48.773 298.24 48.92C297.661 49.2149 297.218 49.7202 297 50.3321C296.782 50.944 296.807 51.616 297.07 52.21Z" fill="#263238"/>
<path d="M313 51.69L316.93 54.74C317.131 54.4892 317.28 54.2005 317.367 53.8912C317.455 53.5818 317.479 53.258 317.439 52.939C317.399 52.62 317.295 52.3123 317.134 52.0342C316.973 51.7561 316.757 51.5132 316.5 51.32C315.983 50.9153 315.328 50.7276 314.675 50.7967C314.022 50.8657 313.421 51.1861 313 51.69Z" fill="#263238"/>
<path d="M297.86 56C297.842 56.3208 297.919 56.6399 298.08 56.9176C298.242 57.1952 298.482 57.4192 298.77 57.5618C299.058 57.7043 299.382 57.7591 299.7 57.7193C300.019 57.6796 300.319 57.547 300.564 57.3381C300.808 57.1292 300.985 56.8531 301.074 56.5443C301.162 56.2354 301.158 55.9073 301.062 55.6007C300.966 55.2941 300.782 55.0225 300.532 54.8197C300.283 54.617 299.98 54.4919 299.66 54.46C299.218 54.4295 298.782 54.5738 298.445 54.8618C298.108 55.1499 297.898 55.5586 297.86 56Z" fill="#263238"/>
<path d="M308.84 54.58L306.1 65.5L300.89 63.07C302.67 59.37 305.55 57.05 308.84 54.58Z" fill="#F28F8F"/>
<path d="M305.68 80.51C310.1 80.51 316.3 79.51 318.99 77.37C321.383 75.5493 323.174 73.0512 324.13 70.2C323.997 72.0623 323.495 73.8796 322.654 75.5465C321.813 77.2133 320.649 78.6965 319.23 79.91C315.4 83.33 305.5 83.61 305.5 83.61L305.68 80.51Z" fill="#F28F8F"/>
<path d="M340 89.25C340 89.25 337.54 100.16 338.75 108.48C339.96 116.8 344.86 121 348.42 125.17C351.98 129.34 357.79 134.8 364.7 135.17L366 113.62C363.251 109.3 360.246 105.149 357 101.19C352.18 95.28 351.65 93.19 340 89.25Z" fill="#F0F0F0"/>
<path opacity="0.1" d="M340 89.25C340 89.25 337.54 100.16 338.75 108.48C339.96 116.8 344.86 121 348.42 125.17C351.98 129.34 357.79 134.8 364.7 135.17L366 113.62C363.251 109.3 360.246 105.149 357 101.19C352.18 95.28 351.65 93.19 340 89.25Z" fill="black"/>
<path d="M306 101.13C308.13 98.49 311.37 93 313.25 91.71C315.13 90.42 324.41 86 325.66 81.47L325.84 78.82C327.12 78.32 327.43 81.66 331.93 86.17C331.858 89.8697 330.572 93.4431 328.27 96.34C327.051 98.1082 325.401 99.5365 323.476 100.49C321.551 101.444 319.416 101.891 317.27 101.79C317.27 101.79 314.13 95.71 313.27 95.4C312.41 95.09 308.76 99.18 306 101.13Z" fill="#F0F0F0"/>
<path d="M306 101.13C304.83 98.78 305 89.93 305 89.93L305.46 83.34C305.46 83.34 303.46 83.22 301.87 85.86C298.3 91.96 298.24 96.11 298.74 97.28C300.15 94.7 302.93 93.47 303.41 94.18C303.89 94.89 304.55 99 306 101.13Z" fill="#F0F0F0"/>
<path d="M351 84.87C349.341 82.1147 348.253 79.0541 347.8 75.87C347.39 72.19 345.02 68.53 344.24 67.05C343.46 65.57 341.67 63.31 340.35 61.2C339.03 59.09 338.64 58.51 336.42 57.82C333.42 56.87 331 56.06 329.73 56.26C328.46 56.46 328.39 57.26 329.31 58.5C330.23 59.74 332.41 60.28 333.08 60.58C333.75 60.88 335.17 61.75 335.17 61.75L337.48 66.38C335.467 66.4528 333.463 66.6666 331.48 67.02C330.48 67.41 329.3 69.78 329.53 71.2C329.53 71.2 327.53 72.2 328.04 74.04C328.04 74.04 326.76 75.32 327.35 76.59C328.035 77.8855 328.863 79.0998 329.82 80.21C330.35 80.8 332.69 81.21 332.69 81.21C333.513 82.9382 334.562 84.549 335.81 86C337.32 87.47 338.43 87.54 339.92 90.39L351 84.87Z" fill="#FFA8A7"/>
<path d="M335.27 66.53C334.18 65.88 334.03 65.06 332.88 65.33C331.73 65.6 331.98 66.9 331.98 66.9L335.27 66.53Z" fill="#F28F8F"/>
<path d="M329.56 71.33C330.367 70.8122 331.237 70.4021 332.15 70.11C333 69.83 334.75 69.47 334.75 69.47C333.573 69.4092 332.393 69.5238 331.25 69.81C330.663 69.9546 330.091 70.1521 329.54 70.4C329.505 70.6689 329.505 70.9411 329.54 71.21L329.56 71.33Z" fill="#F28F8F"/>
<path d="M329.18 73C328.773 73.108 328.375 73.2485 327.99 73.42C327.978 73.6924 328.005 73.9651 328.07 74.23C328.83 73.41 331.4 72.73 331.4 72.73C330.652 72.7387 329.908 72.8292 329.18 73Z" fill="#F28F8F"/>
<path d="M333.05 82C332.563 80.5528 331.937 79.1562 331.18 77.83C330.931 77.4578 330.549 77.1947 330.112 77.0944C329.675 76.994 329.217 77.064 328.83 77.29C328.45 77.71 330.05 77.87 330.48 78.13C331.532 79.2793 332.399 80.5848 333.05 82Z" fill="#F28F8F"/>
<path d="M338.88 66.45C338.88 66.45 338.16 65.06 336.82 62.84C335.48 60.62 335.55 60.92 334.04 60.4C332.53 59.88 329.65 59 329 57.93C329.112 58.1324 329.239 58.3262 329.38 58.51C330.26 59.69 332.48 60.29 333.15 60.59C333.82 60.89 335.24 61.76 335.24 61.76L337.62 66.52L338.88 66.45Z" fill="#F28F8F"/>
<path d="M351 84.87C355.37 91.87 367.42 108.93 369.86 115.4C371.56 119.87 370.86 129.65 368.05 132.86C365.24 136.07 358.9 133.71 354.21 128.33C350.16 123.68 347.63 113.46 345.21 106.1C342.79 98.74 339.86 90.42 339.86 90.42L351 84.87Z" fill="#FFA8A7"/>
<path d="M341.54 96.28C341.54 96.28 346.98 96.93 350.54 94.91C352.545 93.8831 354.137 92.1994 355.05 90.14C355.05 90.14 364.43 104.39 367.05 108.74C369.67 113.09 371.86 116.08 371.38 122.57C370.9 129.06 370.24 134.8 365.58 135.19C360.92 135.58 355.71 131.45 352.94 128.19C350.17 124.93 344.8 109.64 341.54 96.28Z" fill="#F0F0F0"/>
<path d="M351 84.87C349.999 83.1244 349.162 81.2899 348.5 79.39C347.81 77.49 347.83 75.39 347.21 73.51C345.835 69.7364 343.896 66.1928 341.46 63C340.24 61.48 339.55 59.33 337.73 58.43C336.58 58.02 327.59 54.51 329.06 57.77C330.31 60.09 333.48 60.09 335.35 61.68L337.65 66.32C337.76 66.56 337.8 66.5 337.53 66.52C335.716 66.5893 333.907 66.7495 332.11 67C331.18 67 330.64 67.85 330.23 68.63C329.776 69.4315 329.581 70.3534 329.67 71.27C329.133 71.489 328.689 71.8886 328.416 72.3998C328.142 72.9109 328.055 73.5017 328.17 74.07C327.853 74.3482 327.613 74.703 327.473 75.1005C327.333 75.498 327.298 75.9248 327.37 76.34C327.715 77.1147 328.144 77.8491 328.65 78.53C329.081 79.2515 329.636 79.8913 330.29 80.42C331.075 80.7749 331.902 81.0303 332.75 81.18C333.566 82.9877 334.663 84.655 336 86.12C337.5 87.37 339.14 88.55 339.95 90.42C339.11 88.55 337.47 87.42 335.95 86.19C334.607 84.7402 333.497 83.0905 332.66 81.3C331.826 81.1822 331.014 80.943 330.25 80.59C329.565 80.0516 328.982 79.3945 328.53 78.65C327.42 77.11 326.4 75.65 328.02 73.97V74.07C327.898 73.4694 327.984 72.8452 328.264 72.3C328.544 71.7548 329.001 71.3211 329.56 71.07L329.5 71.19C329.459 70.4893 329.56 69.7875 329.795 69.1262C330.03 68.465 330.396 67.8576 330.87 67.34C331.201 66.9878 331.649 66.7676 332.13 66.72C333.94 66.4559 335.762 66.2857 337.59 66.21L337.47 66.41L335.15 61.79C333.46 60.53 329.98 60.12 328.87 57.88C327.27 53.94 336.48 57.67 337.87 58.18C338.78 58.6851 339.52 59.4468 340 60.37C342.71 64.59 345.89 68.6 347.41 73.46C348.01 75.39 347.96 77.46 348.62 79.36C349.242 81.266 350.039 83.1104 351 84.87Z" fill="#B16668"/>
<path d="M294.25 151C294.12 147.29 291.53 142.95 288.47 141.29C287.335 140.65 286.022 140.397 284.73 140.57C283.36 140.707 281.979 140.47 280.732 139.886C279.486 139.301 278.421 138.391 277.65 137.25C275.17 133.85 275.1 128.98 275 121.61C275 119.61 274.95 117.39 274.89 114.98C263.77 108.33 252.16 101.66 249.53 102.78L249.41 102.84C247.99 103.62 249 106.42 250.33 108.66C251.298 110.068 251.894 111.699 252.06 113.4C252.19 116.6 248.6 117.21 244.06 114.79C239.52 112.37 235.81 107.79 235.69 104.61C235.652 104.026 235.767 103.443 236.023 102.917C236.279 102.391 236.667 101.94 237.15 101.61C238.41 100.74 239.27 98.86 237.59 96.41C234.84 92.41 226.14 88.22 215.06 82.92V83L215.13 84.95C215.13 85.58 215.13 86.19 215.13 86.8C215.46 96.14 215.53 102.8 212.88 103.66C210.88 104.35 207.8 101.77 205.78 99.34C204.74 97.9999 203.458 96.8669 202 96C201.473 95.6518 200.868 95.4418 200.238 95.3894C199.609 95.3369 198.977 95.4438 198.4 95.7C197.28 96.31 196.61 97.7 196.68 99.7C196.81 103.42 199.39 107.77 202.46 109.41C203.599 110.051 204.914 110.307 206.21 110.14C207.578 110.001 208.957 110.235 210.202 110.818C211.447 111.401 212.511 112.31 213.28 113.45C216.28 117.45 216.43 123.64 216.77 133.8L216.85 136.22C226.96 142.22 236.54 147.54 239.3 146.34L239.41 146.29C240.83 145.53 239.82 142.71 238.49 140.49C237.534 139.068 236.94 137.434 236.76 135.73C236.66 132.54 240.23 131.93 244.76 134.36C249.29 136.79 253.03 141.36 253.13 144.53C253.165 145.113 253.049 145.696 252.793 146.221C252.538 146.747 252.151 147.198 251.67 147.53C250.42 148.4 249.55 150.28 251.25 152.72C253.76 156.35 262.92 161.17 273.53 166.72C274.53 167.26 275.6 167.8 276.67 168.35C276.57 166.16 276.47 164.05 276.35 161.99C275.91 153.71 275.59 147.74 277.98 146.92C279.98 146.23 283.06 148.82 285.08 151.24C286.136 152.596 287.443 153.737 288.93 154.6C289.454 154.954 290.061 155.167 290.691 155.219C291.321 155.272 291.954 155.162 292.53 154.9C293.65 154.42 294.32 153 294.25 151Z" fill="#2B32B2"/>
<path opacity="0.3" d="M294.25 151C294.12 147.29 291.53 142.95 288.47 141.29C287.335 140.65 286.022 140.397 284.73 140.57C283.36 140.707 281.979 140.47 280.732 139.886C279.486 139.301 278.421 138.391 277.65 137.25C275.17 133.85 275.1 128.98 275 121.61C275 119.61 274.95 117.39 274.89 114.98C263.77 108.33 252.16 101.66 249.53 102.78L249.41 102.84C247.99 103.62 249 106.42 250.33 108.66C251.298 110.068 251.894 111.699 252.06 113.4C252.19 116.6 248.6 117.21 244.06 114.79C239.52 112.37 235.81 107.79 235.69 104.61C235.652 104.026 235.767 103.443 236.023 102.917C236.279 102.391 236.667 101.94 237.15 101.61C238.41 100.74 239.27 98.86 237.59 96.41C234.84 92.41 226.14 88.22 215.06 82.92V83L215.13 84.95C215.13 85.58 215.13 86.19 215.13 86.8C215.46 96.14 215.53 102.8 212.88 103.66C210.88 104.35 207.8 101.77 205.78 99.34C204.74 97.9999 203.458 96.8669 202 96C201.473 95.6518 200.868 95.4418 200.238 95.3894C199.609 95.3369 198.977 95.4438 198.4 95.7C197.28 96.31 196.61 97.7 196.68 99.7C196.81 103.42 199.39 107.77 202.46 109.41C203.599 110.051 204.914 110.307 206.21 110.14C207.578 110.001 208.957 110.235 210.202 110.818C211.447 111.401 212.511 112.31 213.28 113.45C216.28 117.45 216.43 123.64 216.77 133.8L216.85 136.22C226.96 142.22 236.54 147.54 239.3 146.34L239.41 146.29C240.83 145.53 239.82 142.71 238.49 140.49C237.534 139.068 236.94 137.434 236.76 135.73C236.66 132.54 240.23 131.93 244.76 134.36C249.29 136.79 253.03 141.36 253.13 144.53C253.165 145.113 253.049 145.696 252.793 146.221C252.538 146.747 252.151 147.198 251.67 147.53C250.42 148.4 249.55 150.28 251.25 152.72C253.76 156.35 262.92 161.17 273.53 166.72C274.53 167.26 275.6 167.8 276.67 168.35C276.57 166.16 276.47 164.05 276.35 161.99C275.91 153.71 275.59 147.74 277.98 146.92C279.98 146.23 283.06 148.82 285.08 151.24C286.136 152.596 287.443 153.737 288.93 154.6C289.454 154.954 290.061 155.167 290.691 155.219C291.321 155.272 291.954 155.162 292.53 154.9C293.65 154.42 294.32 153 294.25 151Z" fill="white"/>
<path d="M208.9 117.44C207.39 115.33 207.53 115.05 208.34 113.98C208.956 113.123 209.767 112.425 210.706 111.943C211.645 111.461 212.685 111.21 213.74 111.21C215.6 111.27 217.47 111.21 218.42 111.72C219.37 112.23 218.57 114.23 216.15 114.72C212.35 115.57 212.37 116.6 212.37 116.6C213.991 116.23 215.63 115.943 217.28 115.74C219.16 115.871 221.026 116.155 222.86 116.59C224.47 116.84 224.79 118.91 222.07 119.59L225.01 120.06C227.06 120.39 227.76 121.49 226.15 122.76C225.621 123.194 224.964 123.44 224.28 123.46C224.28 123.46 226.48 123.46 226.52 124.19C226.65 126.28 225.3 126.83 220.87 128.11C219.201 128.48 217.725 129.447 216.72 130.83L216.82 133.61C216.82 133.61 214.91 132.19 213.4 131.15C212.29 130.38 211.34 129.52 211.84 127.79C211.84 127.79 209.43 127.79 209.28 126.34C209.25 125.244 209.451 124.153 209.87 123.14C209.436 122.895 209.081 122.532 208.845 122.093C208.61 121.654 208.504 121.157 208.54 120.66C208.53 119.714 208.836 118.792 209.41 118.04L208.9 117.44Z" fill="#FFA8A7"/>
<path d="M222.07 119.67C221.191 119.491 220.297 119.394 219.4 119.38C218.5 119.518 217.626 119.795 216.81 120.2C215.19 120.902 213.631 121.738 212.15 122.7C213.864 122.248 215.536 121.653 217.15 120.92C217.905 120.539 218.691 120.225 219.5 119.98C220.27 119.85 221.2 119.84 222.07 119.67Z" fill="#F28F8F"/>
<path d="M224.28 123.54C223.342 123.277 222.353 123.246 221.4 123.45C220.456 123.657 219.532 123.948 218.64 124.32C216.886 125.045 215.211 125.946 213.64 127.01C215.451 126.439 217.23 125.772 218.97 125.01C220.636 124.2 222.435 123.702 224.28 123.54Z" fill="#F28F8F"/>
<path d="M388.15 27.8C382.239 30.2014 377.173 34.3021 373.593 39.5835C370.013 44.8648 368.08 51.0894 368.039 57.4696C367.997 63.8497 369.849 70.0988 373.36 75.4261C376.872 80.7535 381.884 84.9196 387.764 87.3974C393.643 89.8752 400.126 90.5533 406.391 89.346C412.656 88.1386 418.422 85.1001 422.959 80.6148C427.497 76.1294 430.602 70.3989 431.882 64.1483C433.162 57.8977 432.559 51.4079 430.15 45.5C426.914 37.5941 420.678 31.2925 412.806 27.9751C404.934 24.6577 396.068 24.5947 388.15 27.8ZM389.24 30.49C394.617 28.3017 400.521 27.7569 406.207 28.9245C411.894 30.092 417.106 32.9195 421.185 37.0493C425.265 41.1792 428.028 46.4259 429.125 52.1261C430.222 57.8262 429.605 63.7238 427.35 69.073C425.096 74.4222 421.306 78.9828 416.46 82.178C411.614 85.3733 405.929 87.0598 400.124 87.0241C394.319 86.9885 388.655 85.2323 383.849 81.9778C379.042 78.7233 375.308 74.1165 373.12 68.74C370.191 61.5296 370.243 53.4514 373.266 46.2796C376.288 39.1077 382.033 33.4288 389.24 30.49Z" fill="#455A64"/>
<path d="M389.24 30.49C383.864 32.6793 379.257 36.4137 376.003 41.2211C372.749 46.0284 370.994 51.6928 370.959 57.4977C370.925 63.3027 372.612 68.9875 375.809 73.8334C379.005 78.6792 383.567 82.4683 388.917 84.7216C394.266 86.9748 400.164 87.591 405.865 86.4922C411.565 85.3933 416.811 82.6288 420.94 78.5483C425.069 74.4678 427.895 69.2545 429.061 63.5677C430.227 57.8809 429.68 51.9761 427.49 46.6C424.547 39.397 418.867 33.6556 411.696 30.6354C404.525 27.6152 396.449 27.5629 389.24 30.49Z" fill="white"/>
<path d="M362.87 74.8L374.3 74.61L369.87 63.72L361.55 71.57C361.275 71.8291 361.085 72.1654 361.005 72.5344C360.926 72.9035 360.959 73.2882 361.102 73.6378C361.245 73.9874 361.49 74.2855 361.806 74.493C362.121 74.7004 362.492 74.8075 362.87 74.8Z" fill="#455A64"/>
<path d="M404.72 70.1H395.89C395.803 70.1013 395.717 70.0852 395.636 70.0525C395.555 70.0198 395.482 69.9712 395.42 69.9097C395.359 69.8481 395.31 69.7748 395.277 69.6942C395.245 69.6135 395.229 69.527 395.23 69.44C395.229 69.3525 395.245 69.2656 395.277 69.1843C395.31 69.1031 395.358 69.0292 395.42 68.9668C395.481 68.9045 395.554 68.855 395.635 68.8212C395.716 68.7874 395.802 68.77 395.89 68.77H404.72C404.808 68.77 404.894 68.7874 404.975 68.8212C405.056 68.855 405.129 68.9045 405.19 68.9668C405.252 69.0292 405.3 69.1031 405.333 69.1843C405.365 69.2656 405.381 69.3525 405.38 69.44C405.381 69.527 405.365 69.6135 405.333 69.6942C405.3 69.7748 405.251 69.8481 405.19 69.9097C405.128 69.9712 405.055 70.0198 404.974 70.0525C404.893 70.0852 404.807 70.1013 404.72 70.1Z" fill="#455A64"/>
<path d="M400.31 77C398.963 77 397.671 76.4648 396.718 75.5121C395.765 74.5594 395.23 73.2673 395.23 71.92C395.229 71.8329 395.245 71.7465 395.277 71.6658C395.31 71.5851 395.359 71.5119 395.42 71.4503C395.482 71.3887 395.555 71.3402 395.636 71.3075C395.717 71.2748 395.803 71.2586 395.89 71.26H404.72C404.807 71.2586 404.893 71.2748 404.974 71.3075C405.055 71.3402 405.128 71.3887 405.19 71.4503C405.251 71.5119 405.3 71.5851 405.333 71.6658C405.365 71.7465 405.381 71.8329 405.38 71.92C405.38 73.2656 404.846 74.5562 403.896 75.5086C402.945 76.461 401.656 76.9973 400.31 77Z" fill="#455A64"/>
<path d="M409.74 42.13C408.402 40.8477 406.816 39.8526 405.079 39.206C403.342 38.5594 401.491 38.2749 399.64 38.37C396.187 38.5809 392.939 40.0761 390.533 42.5614C388.127 45.0468 386.738 48.3424 386.64 51.8C386.601 54.2154 387.202 56.5982 388.382 58.7059C389.563 60.8137 391.28 62.5713 393.36 63.8C393.91 64.1152 394.368 64.5692 394.687 65.1168C395.006 65.6643 395.176 66.2861 395.18 66.92C395.177 66.9987 395.191 67.0771 395.219 67.1505C395.248 67.2238 395.291 67.2906 395.346 67.3468C395.401 67.4029 395.467 67.4472 395.54 67.477C395.613 67.5068 395.691 67.5214 395.77 67.52H404.84C404.999 67.52 405.152 67.4568 405.264 67.3443C405.377 67.2317 405.44 67.0791 405.44 66.92C405.446 66.2904 405.615 65.6731 405.931 65.1282C406.246 64.5832 406.697 64.1291 407.24 63.81C409.296 62.5986 411.001 60.8724 412.186 58.8014C413.371 56.7304 413.997 54.3862 414 52C414 50.1513 413.622 48.3221 412.89 46.6248C412.157 44.9275 411.085 43.3979 409.74 42.13Z" fill="#2B32B2"/>
<g opacity="0.35">
<path d="M409.74 42.13C408.402 40.8477 406.816 39.8526 405.079 39.206C403.342 38.5594 401.491 38.2749 399.64 38.37C396.187 38.5809 392.939 40.0761 390.533 42.5614C388.127 45.0468 386.738 48.3424 386.64 51.8C386.601 54.2154 387.202 56.5982 388.382 58.7059C389.563 60.8137 391.28 62.5713 393.36 63.8C393.91 64.1152 394.368 64.5692 394.687 65.1168C395.006 65.6643 395.176 66.2861 395.18 66.92C395.177 66.9987 395.191 67.0771 395.219 67.1505C395.248 67.2238 395.291 67.2906 395.346 67.3468C395.401 67.4029 395.467 67.4472 395.54 67.477C395.613 67.5068 395.691 67.5214 395.77 67.52H404.84C404.999 67.52 405.152 67.4568 405.264 67.3443C405.377 67.2317 405.44 67.0791 405.44 66.92C405.446 66.2904 405.615 65.6731 405.931 65.1282C406.246 64.5832 406.697 64.1291 407.24 63.81C409.296 62.5986 411.001 60.8724 412.186 58.8014C413.371 56.7304 413.997 54.3862 414 52C414 50.1513 413.622 48.3221 412.89 46.6248C412.157 44.9275 411.085 43.3979 409.74 42.13Z" fill="white"/>
</g>
<path d="M407.87 54.83C407.782 54.5517 407.606 54.3098 407.367 54.1418C407.129 53.9737 406.842 53.8888 406.55 53.9C406.051 53.9611 405.573 54.1351 405.152 54.4089C404.731 54.6827 404.378 55.0491 404.12 55.48L404.02 55.62H403.85C403.129 55.3714 402.453 55.0066 401.85 54.54C401.512 54.2885 401.201 54.0037 400.92 53.69L400.78 53.56L400.89 53.39C401.284 52.9267 401.567 52.3797 401.718 51.7905C401.869 51.2014 401.883 50.5856 401.76 49.99C401.656 49.6923 401.462 49.4343 401.205 49.2518C400.948 49.0692 400.64 48.9712 400.325 48.9712C400.01 48.9712 399.702 49.0692 399.445 49.2518C399.188 49.4343 398.994 49.6923 398.89 49.99C398.773 50.5858 398.79 51.2001 398.941 51.7883C399.091 52.3765 399.371 52.9237 399.76 53.39L399.87 53.56L399.73 53.69C399.449 54.0037 399.138 54.2885 398.8 54.54C398.197 55.0066 397.521 55.3714 396.8 55.62H396.63L396.53 55.48C396.272 55.0491 395.919 54.6827 395.498 54.4089C395.077 54.1351 394.599 53.9611 394.1 53.9C393.808 53.8888 393.521 53.9737 393.283 54.1418C393.044 54.3098 392.868 54.5517 392.78 54.83C392.703 55.0632 392.709 55.3157 392.797 55.5451C392.884 55.7745 393.048 55.9669 393.26 56.09C393.807 56.4218 394.441 56.5821 395.08 56.55C395.435 56.5486 395.79 56.5185 396.14 56.46H396.31L396.39 56.62C396.697 57.1854 396.952 57.7779 397.15 58.39C397.833 60.937 398.093 63.5788 397.92 66.21C397.92 66.66 397.92 67.1 397.92 67.53H398.63V66.15C398.807 63.4575 398.536 60.7543 397.83 58.15C397.646 57.5801 397.419 57.0251 397.15 56.49L397.03 56.25L397.29 56.15C398.007 55.8869 398.681 55.5196 399.29 55.06C399.618 54.8075 399.928 54.5336 400.22 54.24L400.39 54.06L400.57 54.24C400.861 54.5339 401.172 54.8078 401.5 55.06C402.108 55.5217 402.782 55.8892 403.5 56.15L403.76 56.25L403.64 56.49C403.371 57.0251 403.144 57.5801 402.96 58.15C402.254 60.7544 401.984 63.4575 402.16 66.15C402.16 66.6 402.16 67.04 402.16 67.48H402.86C402.86 67.05 402.86 66.61 402.86 66.12C402.688 63.502 402.948 60.8735 403.63 58.34C403.828 57.7279 404.083 57.1354 404.39 56.57L404.47 56.41H404.64C404.99 56.4689 405.345 56.499 405.7 56.5C406.339 56.5321 406.973 56.3718 407.52 56.04C407.699 55.9013 407.829 55.7094 407.892 55.492C407.955 55.2745 407.947 55.0428 407.87 54.83ZM395.38 55.83H395.07C394.565 55.8579 394.063 55.7436 393.62 55.5C393.539 55.454 393.475 55.3841 393.435 55.2999C393.396 55.2158 393.384 55.1215 393.4 55.03C393.443 54.8913 393.531 54.7712 393.651 54.6894C393.771 54.6076 393.915 54.5691 394.06 54.58C394.644 54.6565 395.175 54.9579 395.54 55.42L395.89 55.79L395.38 55.83ZM400.3 52.93L400.1 52.59C399.845 52.2431 399.663 51.8479 399.565 51.4285C399.467 51.0091 399.455 50.5741 399.53 50.15C399.578 49.9866 399.68 49.8446 399.821 49.748C399.961 49.6515 400.13 49.6063 400.3 49.62C400.471 49.6058 400.642 49.6506 400.784 49.7471C400.926 49.8435 401.03 49.9858 401.08 50.15C401.155 50.5741 401.143 51.0091 401.045 51.4285C400.947 51.8479 400.765 52.2431 400.51 52.59L400.3 52.93ZM407 55.52C406.553 55.7634 406.048 55.8776 405.54 55.85H405.24H404.73L405.08 55.48C405.445 55.0179 405.976 54.7165 406.56 54.64C406.704 54.6309 406.848 54.6701 406.967 54.7517C407.087 54.8332 407.176 54.9522 407.22 55.09C407.29 55.31 407.06 55.46 407 55.52Z" fill="#FAFAFA"/>
</svg>
