<svg xmlns="http://www.w3.org/2000/svg" width="333.006" height="80.463" viewBox="0 0 333.006 80.463">
  <g id="Group_3933" data-name="Group 3933" transform="translate(-1100 -157.208)">
    <path id="Union_25" data-name="Union 25" d="M-8582.219,44.954C-8586.63,43.073-8603,33.783-8603,33.783V21.871s14.541,8.066,20.781,11,10.16,1.481,13.064,0c2.234-1.137,25.413-14.889,36-21.179L-8535.287,8l18.355-.205-9.356,15.794-1.759-3.046c-2.178,1.319-35.644,21.6-39.64,23.842a16.14,16.14,0,0,1-7.8,1.873A17.367,17.367,0,0,1-8582.219,44.954Z" transform="translate(9703 149.414)" fill="#fff"/>
    <path id="Union_45" data-name="Union 45" d="M-8582.219,44.954C-8586.63,43.073-8603,33.783-8603,33.783V21.871s14.541,8.066,20.781,11,10.16,1.481,13.064,0c2.234-1.137,25.413-14.889,36-21.179L-8535.287,8l18.355-.205-9.356,15.794-1.759-3.046c-2.178,1.319-35.644,21.6-39.64,23.842a16.14,16.14,0,0,1-7.8,1.873A17.367,17.367,0,0,1-8582.219,44.954Z" transform="translate(9703 191.414)" fill="#fff"/>
    <path id="Union_44" data-name="Union 44" d="M-8582.219,44.954C-8586.63,43.073-8603,33.783-8603,33.783V21.871s14.541,8.066,20.781,11,10.16,1.481,13.064,0c2.234-1.137,25.413-14.889,36-21.179L-8535.287,8l18.355-.205-9.356,15.794-1.759-3.046c-2.178,1.319-35.644,21.6-39.64,23.842a16.14,16.14,0,0,1-7.8,1.873A17.367,17.367,0,0,1-8582.219,44.954Z" transform="translate(9703 171.207)" fill="#fff"/>
    <path id="Union_46" data-name="Union 46" d="M-8421.723,45.092a8.418,8.418,0,0,1-3.265-7.2V36.067a1.5,1.5,0,0,1,.769-1.406,4.318,4.318,0,0,1,2.01-.348,3.423,3.423,0,0,1,1.866.477,1.669,1.669,0,0,1,.856,1.449V38.8a2.847,2.847,0,0,0,1.615,2.72,12.887,12.887,0,0,0,5.693.939,12.978,12.978,0,0,0,5.631-.941,2.715,2.715,0,0,0,1.68-2.548V35.955a2.748,2.748,0,0,0-1.09-2.315,13.142,13.142,0,0,0-4.463-1.762l-5.014-1.254a21.274,21.274,0,0,1-5.315-1.932,5.67,5.67,0,0,1-2.614-3.09,16.412,16.412,0,0,1-.656-5.21v-.684a8.04,8.04,0,0,1,3.2-6.842c2.072-1.539,5.041-2.321,8.817-2.321,4.083,0,7.2.782,9.277,2.321a8.286,8.286,0,0,1,3.193,7.071v1.995a1.473,1.473,0,0,1-.74,1.326,3.391,3.391,0,0,1-1.754.371c-2.487,0-3.01-1.015-3.01-1.868V19.537a3.205,3.205,0,0,0-1.6-2.949,10.33,10.33,0,0,0-5.255-1.054,9.916,9.916,0,0,0-4.987,1.043,3,3,0,0,0-1.637,2.733v1.252a11.732,11.732,0,0,0,.268,2.863,2.057,2.057,0,0,0,.97,1.3,10.232,10.232,0,0,0,2.6.941l4.962,1.254a34.259,34.259,0,0,1,6.364,2.116,6.449,6.449,0,0,1,3.17,2.915,10.838,10.838,0,0,1,.818,4.575v2.051a7.56,7.56,0,0,1-3.411,6.626c-2.205,1.494-5.385,2.252-9.459,2.252C-8416.409,47.454-8419.6,46.66-8421.723,45.092Zm-91.732-.078a8.407,8.407,0,0,1-3.245-7.064v-17.9a8.4,8.4,0,0,1,3.245-7.1c2.113-1.6,5.178-2.41,9.109-2.41s7,.812,9.108,2.41a8.4,8.4,0,0,1,3.248,7.1v1.824a1.558,1.558,0,0,1-.82,1.416,3.949,3.949,0,0,1-1.961.393,3.934,3.934,0,0,1-1.958-.393,1.556,1.556,0,0,1-.82-1.416V19.481a3.158,3.158,0,0,0-1.585-2.908,10.312,10.312,0,0,0-5.212-1.039A10.123,10.123,0,0,0-8509.5,16.6a3.149,3.149,0,0,0-1.639,2.878V38.52A3.149,3.149,0,0,0-8509.5,41.4a10.125,10.125,0,0,0,5.156,1.067,10.312,10.312,0,0,0,5.212-1.039,3.155,3.155,0,0,0,1.585-2.906V36.126a1.553,1.553,0,0,1,.82-1.416,3.932,3.932,0,0,1,1.958-.4,3.947,3.947,0,0,1,1.961.4,1.555,1.555,0,0,1,.82,1.416V37.95a8.391,8.391,0,0,1-3.248,7.095c-2.113,1.6-5.177,2.41-9.108,2.41S-8511.344,46.634-8513.455,45.014Zm-63.357,2.047a1.558,1.558,0,0,1-.823-1.416V20.051c0-3.059.909-5.437,2.7-7.067s4.354-2.44,7.66-2.44c3.343,0,5.929.8,7.687,2.379,1.774,1.593,2.675,3.953,2.675,7.013v2.394a1.556,1.556,0,0,1-.82,1.416,3.939,3.939,0,0,1-1.958.4,3.942,3.942,0,0,1-1.961-.4,1.558,1.558,0,0,1-.82-1.416v-2.85a3.606,3.606,0,0,0-1.146-2.951,5.632,5.632,0,0,0-3.655-1,5.544,5.544,0,0,0-3.612,1.026,3.555,3.555,0,0,0-1.187,2.921V45.645a1.557,1.557,0,0,1-.822,1.416,3.929,3.929,0,0,1-1.958.393A3.926,3.926,0,0,1-8576.812,47.061Zm137.627-1.285a10.246,10.246,0,0,1-1.293-3.236,18.264,18.264,0,0,1-.471-4.249V31.207l-8.969.913c-2.3.22-3.236.749-3.618,1.155a5.02,5.02,0,0,0-.834,3.362v.458c0,1.79.307,3.005.909,3.608s1.776.907,3.493.907h6.67a1.415,1.415,0,0,1,1.288.751,3.529,3.529,0,0,1,.353,1.745,3.534,3.534,0,0,1-.353,1.745,1.417,1.417,0,0,1-1.288.749h-6.67c-3.5,0-6.061-.745-7.61-2.217s-2.352-3.93-2.352-7.287v-.458a13.405,13.405,0,0,1,.838-5.184,5.819,5.819,0,0,1,3.044-3.023,18.34,18.34,0,0,1,5.689-1.3l9.409-.926V20.336a3.115,3.115,0,0,0-1.687-2.9,11.579,11.579,0,0,0-5.563-1.045h-7.81a1.418,1.418,0,0,1-1.291-.749,3.537,3.537,0,0,1-.35-1.745,3.526,3.526,0,0,1,.35-1.745,1.416,1.416,0,0,1,1.291-.751h7.81c4.078,0,7.254.81,9.441,2.405a8.285,8.285,0,0,1,3.368,7.1V37.721a12.3,12.3,0,0,0,.406,3.582,8.177,8.177,0,0,0,.8,1.874,2.471,2.471,0,0,1,.508,1.27,1.935,1.935,0,0,1-.649,1.285,5.449,5.449,0,0,1-1.285,1,3.006,3.006,0,0,1-1.473.434A2.581,2.581,0,0,1-8439.186,45.777Zm-92.282,0a10.246,10.246,0,0,1-1.294-3.236,18.424,18.424,0,0,1-.471-4.249V31.207l-8.969.913c-2.3.22-3.236.749-3.618,1.155a5.02,5.02,0,0,0-.834,3.362v.458c0,1.79.307,3.005.909,3.608s1.777.907,3.493.907h6.67a1.414,1.414,0,0,1,1.289.751,3.532,3.532,0,0,1,.35,1.745,3.537,3.537,0,0,1-.35,1.745,1.416,1.416,0,0,1-1.289.749h-6.67c-3.5,0-6.058-.745-7.61-2.217s-2.352-3.93-2.352-7.287v-.458a13.405,13.405,0,0,1,.838-5.184,5.807,5.807,0,0,1,3.047-3.023,18.3,18.3,0,0,1,5.687-1.3l9.409-.926V20.336a3.114,3.114,0,0,0-1.686-2.9,11.584,11.584,0,0,0-5.566-1.045h-7.81a1.42,1.42,0,0,1-1.289-.749,3.537,3.537,0,0,1-.35-1.745,3.526,3.526,0,0,1,.35-1.745,1.418,1.418,0,0,1,1.289-.751h7.81c4.081,0,7.259.81,9.443,2.405a8.278,8.278,0,0,1,3.368,7.1V37.721a12.334,12.334,0,0,0,.406,3.582,8.042,8.042,0,0,0,.8,1.874,2.468,2.468,0,0,1,.507,1.27,1.936,1.936,0,0,1-.647,1.285,5.54,5.54,0,0,1-1.287,1,3,3,0,0,1-1.47.434A2.576,2.576,0,0,1-8531.468,45.777Zm-63.954.207a8.248,8.248,0,0,1-1.371-2.7A10.938,10.938,0,0,1-8597.3,40V16.389h-4.059a1.416,1.416,0,0,1-1.289-.749A3.514,3.514,0,0,1-8603,13.9a3.5,3.5,0,0,1,.352-1.745,1.414,1.414,0,0,1,1.289-.751h4.059V5.231a1.558,1.558,0,0,1,.823-1.416,3.927,3.927,0,0,1,1.958-.4,3.927,3.927,0,0,1,1.958.4,1.558,1.558,0,0,1,.823,1.416V11.4h5.483a1.413,1.413,0,0,1,1.289.751,3.523,3.523,0,0,1,.353,1.745,3.534,3.534,0,0,1-.353,1.745,1.415,1.415,0,0,1-1.289.749h-5.483V39.431a5.785,5.785,0,0,0,.384,2.306,8.431,8.431,0,0,0,.806,1.479,2.236,2.236,0,0,1,.521,1.231,1.936,1.936,0,0,1-.652,1.285,5.444,5.444,0,0,1-1.284,1,3,3,0,0,1-1.471.434A2.619,2.619,0,0,1-8595.422,45.984Zm226.479-.786-3.359-11.555a6.085,6.085,0,0,0-.806-1.865,1.825,1.825,0,0,0-1.176-.663,16.7,16.7,0,0,0-2.952-.19h-6.168V45.075a1.558,1.558,0,0,1-.823,1.416,3.929,3.929,0,0,1-1.958.393,3.929,3.929,0,0,1-1.958-.393,1.558,1.558,0,0,1-.823-1.416V1.811A1.558,1.558,0,0,1-8388.143.4a3.927,3.927,0,0,1,1.958-.4,3.927,3.927,0,0,1,1.958.4,1.558,1.558,0,0,1,.823,1.416V25.935h3.889a15.08,15.08,0,0,0,2.807-.19,1.918,1.918,0,0,0,1.188-.671,7.475,7.475,0,0,0,.952-1.891l3.821-10.435a2.417,2.417,0,0,1,.982-1.278,3.363,3.363,0,0,1,1.706-.354,4.37,4.37,0,0,1,1.839.3,1.321,1.321,0,0,1,.827,1.222,1.7,1.7,0,0,1-.112.529c-.059.175-.18.522-.373,1.064l-3.817,10.884a6.012,6.012,0,0,1-1.023,1.891,5.106,5.106,0,0,1,1.865,1.522,10.271,10.271,0,0,1,1.446,3.239l3.833,13.38,0,.045a1.284,1.284,0,0,1-.319,1.019,3.1,3.1,0,0,1-2.345.669C-8368.156,46.884-8368.768,45.971-8368.942,45.2Zm-106.7,1.293a1.556,1.556,0,0,1-.82-1.416V8.41h-9.189a1.418,1.418,0,0,1-1.291-.749,3.537,3.537,0,0,1-.35-1.745,3.526,3.526,0,0,1,.35-1.745,1.416,1.416,0,0,1,1.291-.751h23.938a1.411,1.411,0,0,1,1.289.751,3.5,3.5,0,0,1,.352,1.745,3.514,3.514,0,0,1-.352,1.745,1.413,1.413,0,0,1-1.289.749h-9.188V45.075a1.557,1.557,0,0,1-.821,1.416,3.937,3.937,0,0,1-1.96.393A3.939,3.939,0,0,1-8475.639,46.491Z" transform="translate(9796.568 169.716)" fill="#fff"/>
  </g>
</svg>
