<svg xmlns="http://www.w3.org/2000/svg" width="405.894" height="168.201" viewBox="0 0 405.894 168.201">
  <g id="Group_2417" data-name="Group 2417" transform="translate(5999.538 7421)">
    <path id="Path_1" data-name="Path 1" d="M95.947,185.737a88.46,88.46,0,0,1,88.46-88.46c20.194,0,41.661,9.355,56.55,20.744-16.129-15.874-41.113-28.255-65.531-28.255a89.37,89.37,0,0,0-42.1,168.2A88.347,88.347,0,0,1,95.947,185.737Z" transform="translate(-6085.602 -7510.766)" fill="#fff"/>
    <path id="Path_2" data-name="Path 2" d="M240.957,124.622a80.043,80.043,0,0,0-112-1.6,91.74,91.74,0,0,1,54.961-17.786C205.844,105.232,225.836,112.568,240.957,124.622Z" transform="translate(-6085.602 -7510.766)" fill="#fff"/>
    <path id="Path_3" data-name="Path 3" d="M106.681,170.341a68.274,68.274,0,0,0,38.079,87.626,79.92,79.92,0,0,1-38.079-87.626Z" transform="translate(-6085.602 -7510.766)" fill="#fff"/>
    <path id="Path_4" data-name="Path 4" d="M229.723,133.135l-54.339,54.928-3.888-4.14Z" transform="translate(-6085.602 -7510.766)" fill="#fff"/>
    <path id="Path_5" data-name="Path 5" d="M147.114,158l30.34,24.032-3.844,4.182Z" transform="translate(-6085.602 -7510.766)" fill="#fff"/>
    <text id="TYMEPLUS" transform="translate(-5900.644 -7274.808)" fill="#fff" font-size="56.883" font-family="Helvetica"><tspan x="0" y="0">TYMEPLUS</tspan></text>
  </g>
</svg>
