<svg xmlns="http://www.w3.org/2000/svg" width="193" height="61" viewBox="0 0 193 61">
  <g id="Logo" transform="translate(-374.97 -255)">
    <g id="Group_4" data-name="Group 4" transform="translate(374.97 255)">
      <g id="Group_3" data-name="Group 3" transform="translate(48.036 0)">
        <path id="Path_10" data-name="Path 10" d="M395.531,861.448h-8.99l-15.8-30.3,4.4-8.151,20.392,38.448Zm-41.531,0,13.47-23.8,3.835,6.9-9.13,16.906Z" transform="translate(-354 -823)" fill="#fff"/>
        <path id="Path_11" data-name="Path 11" d="M393.519,861.448h-8.99l-15.8-30.3,4.4-8.151,20.392,38.448Z" transform="translate(-351.987 -823)" fill="#fff"/>
      </g>
      <path id="Path_7" data-name="Path 7" d="M9.661-113.681l9.421,20.44,9.467-20.44,9.611,20.44,8.894-20.44h8.4L38.16-75.233,28.549-96.546,19.082-75.233.59-113.681Z" transform="translate(-0.59 113.774)" fill="#fff"/>
      <path id="Path_8" data-name="Path 8" d="M21.445-113.84v38.356h-7.8V-113.84Z" transform="translate(84.347 113.933)" fill="#fff"/>
      <path id="Path_9" data-name="Path 9" d="M20.983-113.84v31.03H41.919v7.326H13.64V-113.84Z" transform="translate(100.572 113.932)" fill="#fff"/>
      <g id="Group_2" data-name="Group 2" transform="translate(150.91 0)">
        <path id="Path_10-2" data-name="Path 10" d="M395.531,861.448h-8.99l-15.8-30.3,4.4-8.151,20.392,38.448Zm-41.531,0,13.47-23.8,3.835,6.9-9.13,16.906Z" transform="translate(-354 -823)" fill="#fff"/>
        <path id="Path_11-2" data-name="Path 11" d="M393.519,861.448h-8.99l-15.8-30.3,4.4-8.151,20.392,38.448Z" transform="translate(-351.987 -823)" fill="#fff"/>
      </g>
    </g>
    <text id="TECHNOLOGY" transform="translate(472.97 312)" fill="#fff" font-size="14" font-family="Nunito-Regular, Nunito"><tspan x="0" y="0">TECHNOLOGY</tspan></text>
  </g>
</svg>
